<mxfile host="app.diagrams.net" agent="Mozilla/5.0 (Windows NT 10.0; Win64; x64) AppleWebKit/537.36 (KHTML, like Gecko) Chrome/133.0.0.0 Safari/537.36" version="26.0.13">
  <diagram name="PÃ¡gina-1" id="Hpo8i3kEWaTWnH_53I3F">
    <mxGraphModel grid="1" page="1" gridSize="10" guides="1" tooltips="1" connect="1" arrows="1" fold="1" pageScale="1" pageWidth="827" pageHeight="1169" math="0" shadow="0">
      <root>
        <mxCell id="0" />
        <mxCell id="1" parent="0" />
        <mxCell id="1g7AEfeSAbJGKYjla3uu-7" value="" style="shape=image;verticalLabelPosition=bottom;labelBackgroundColor=default;verticalAlign=top;aspect=fixed;imageAspect=0;image=data:image/png,iVBORw0KGgoAAAANSUhEUgAAAscAAAI2CAYAAAC8OCWSAAAAAXNSR0IArs4c6QAAAARnQU1BAACxjwv8YQUAAAAJcEhZcwAADsMAAA7DAcdvqGQAAM/FSURBVHhe7P1/VFvngSf+v2UbY2xLCLBjN1KMcEKKnMTI01a4k3iQG2baup0FuZlPs7tNBNPtmd2NPUCn3eN4vvsBvp9zXJ+zp2M4tmfPTHfXKO7MZCYtgjnf2PPZyrHYJE2ktEWQNCJ1akSLnNgxICTbGP/i+0fv84x0kUACCRB+v87h2HrulXQlPc+97/vc596r2bZt2zSIiIiIiAir1AVERERERPcrzbZt26Y3bNiAjRs3qqdRDlm1ahU++ugjdTHN05YtW9RFlGMmJycRiUTUxbSI2I5yH7cts2N+yn2J6rhm27Zt09/5znfwxS9+MW4C5RadToevfe1rGBkZUU+iefjJT36iLqIcEwqFUF9fry6mRfTDH/6QATnHbd26FU888YS6mBTPPfccnn/+eXUx5ZCCggJ85zvfwdtvvy3LFjysIhKJwOv1wufzweVywe12w+fzwev1IhQKqWcnWvFGRkbg8/ng8/ngdrtlu/B6vezJJEpRJBKR2xP1toXtiFaCSCSCQCAgtxWxf4FAQD07LaJ59RxHIhEMDg7KxxUVFdDpdHHzAEAgEEA0GkUoFILVaoXBYFDPQhnCnuPMSrfn2Ov1IhqNIhqNJq3rot1EIhHodLqk7YYygz3HSy/dnuNQKIRQKIRIJAKDwQCz2ayeBQDg8/kAAFqtFjqdLmF7o8xgz/Hs0u05jkQiOHfunKy7ybYDIj/N1RZo4RL1HKcVjsXGXavVpv1DiZWewWDgiiwLGI4zK9Vw7PV6odFokq7gZuPz+TAyMoL9+/erJ1EGMBwvvVTDcSgUQiAQgE6ng9VqVU+elc/nYwdMFjEczy7VcByJRODz+eYVdEOhELxeL6qqqljHsyBROE55WIXo+rdarWn/sABgMBjkSq+rq0s9mSjndHV1wWg0wmq1ph2MAcBqtWL//v1wuVwcgkT3LbfbjUgkgpqamrSDMZR2ZLfbZcAmWm5EfqqpqZl3fhKdKMxPiyOlcNzV1QWdToeamhr1pLQZDAbU1NTA6/WqJxHlBDEWcv/+/RnZi7fb7bJXgeh+0tXVNe8OFzWxk8rwQMuJ1+vNaH4SHSocd59dc4bjrq6ujHfl63Q6VFVVMSBTzhEhNhMrulhmsxkGg4EBme4bPp8P+/fvn9dRl2QMBgOqqqoYkGlZ8Hq9MBqNGc1PUDpUfD4fA3IWzRqOA4FAxoNxLLPZDLfbrS4mWrYGBwczHowFMR6fQyxopevq6kJFRYW6OCNEQOaOJi2lUCiUlWAs1NTUcBhRFiUNx6FQCNFoNGs/LJQeZLPZzB+YcoI4mSKbDAYDAoEAewRoxQqFQqiqqspoj7GawWCAVqvljiYtmcXYXrCDMXtmDcfzOTkiXewpo1wg6mi2V3ZQegTY60Ur1WKEBijBgUP3aCl0dXXBbrerizNOp9NBp9OxMyULEoZjccm1xWK1Wtl7TMvaYu0sCgaDgSs8WnG8Xu+itqOqqipuW2jRGY1GdVHWWK3WuPtOUGYkvM6x2+3O2rjKZBbynqFQSJ6Aob5USiQSgdPpjJn7d3tbNTU1cgcg0d1ozGbzvJdnKfA6x5mlvs6xuIzhYurq6pr3NZC7urpkb7fD4Yg7hO1T7jIWS13fjx8/Hjdd3WZyQYjXOV5y6uscL2Q9P18Lec/YtqK+Ok0gEJhxSFuMdxbzxbZDwWq1oqqqKq5sOeN1jmenvs5xrm0rYvOTejuAFLYFqWxPlrtE1zlOGI7FxaYXk8/nm9eNFADg0KFDcLlcgLLiOX36tJwWCoXwhS98IWbu39HpdDh58iSsVmvc82OZzWa89NJL81qmxcZwnFmx4VjcnGCxg+FCNuqf/exnEY1GAQCnT5+OW1kfP34cJ06ciJn7dwwGA7q7u6HT6fDpT39aPRkAcODAARw8eFBdvCwxHC+92HAsbiK12MFhIe2orq5Odpyo635XVxdefPHFmLl/x2Aw4PTp0zAYDHjuuecSDpFyOBw4fPiwunhZYjienTocL6S+zddC2pbT6cSRI0eABPkJQNJtweHDh+FwOGbdnoh2sNwlCsczhlVEIhFoNBr5OFGwDAQCeO655+RfbK+r0+mU5S+88ILcaw6FQnjuuedQV1eH5557bsbeyEIODYi9d61WK2/Pq2YwGPDaa6+hu7sbDocDkUhEVgjB4XDgtddekz9oIBBIGJrp/hJ7YmooFMKhQ4fUs8TV+0OHDsk6GIlEktb72HYU21YWyu12y2CMBHv+grq+h0KhGUdZTp8+je7ubrkhP3HiRML2RTSXQCAQd4WK5557Lm46lMD5hS98QbaL2DZx5MgRWR677g6FQnjhhRfkNHVvrtlsnlfbCik3FdFqtQCQdFtQU1Mj25HVak24jjh58iRee+01HD16FFqtFk6nM2FoptwX25l26NChGXVvtvqaSv3/z//5P89Ypy9k3HHsOt/n8yWtlyI/iR1E9bYgth2INqfenuSSGeFYvQJL5MiRIzh58iROnz6No0eP4sUXX0QkEoHX60UgEMDp06dx+vRpOBwOuRI7fvw4Dh8+jO7ubpw+fRrRaHTGjzA9PR33OBUiCFiVC8lHIpGkKzGDctvGAwcOAMpnjf1xtVotDMqd/BwOh5yHaDZdXV2IRqOy3u/fv1+uFI4cOYKampoZ9T4UCsW1o8OHD+OFF16Ie935btTFIbLDhw/PusMYW99Fm1DvoIo243A45HAl9TxEqdBoNLMehQuFQjh37pzcwB49elRuP7qUG1GJNoaYnb5Dhw7h8OHDOH36NE6ePAmn0xlX30VHR7pEaBGHkEOh0IxtFpJsN9TtVhx5stvtsldRfSiacl8kEpE7U8nE1tfTp0/LG3qEQiGcOHFCbiti6//x48dlT+xf//VfIxqNzriW92xtK5lAIICQco6Z2AYkq5ex+cmgnBMTW88TbU/m0+6WixnhGHN8yeKECjGP+DIGBwdx7ty5uHEvVqtV9jiFQqG4scA1NTUz9vBje7tSJV5j//798uxQ9euqxb5Pss8qftRk0+n+kShYxnK73Xj66aflY6vVinPnzgFKvRcbTCiHZisqKhAIBFBTUzOjHalXJnO9t1okEpHvXaOMv48od/SbTaKNfqxIJJL2shClw+12x53hb1AuxyY6PGIPXYtDuoFAAAbl+uBQ1td2u31GfZ8rsCQidnBjty3JgoMg2shs2w0RKBbzpC1aHKFQaNbfPpBgiN7TTz8Nl8sFt9uNw4cPx20TRH7y+XwztiNiPS/MZ/0cOxxVDKVN1rkohEKhGTt/anNNzwUJw/FsxF5GLLEXEYlE5DRxmFk9dEEQz4mlfjwXsdKE8uPW1NRAq9XCl+DOMdFoFIcOHcKhQ4dQW1sLKHeZiXXu3DkcOnQIzz33nHxd9Tx0/1HXpUTUbUJsjGN3xA4dOoQXXngBbrcbkQQ9DFqtNm5+g8GQ9g6jCAVWqxUG5VbtSLLCS1Tf1WPljhw5gkOHDqGurk62fes8xrURzSUSiSQMFqINiGni8LIY56h+znzajVpsj1pscHjppZfUs8Ln88lti9jeqbcbx48fl23N5/NBq9WyHa1A89lWxOYnwev14jlliF4iugTDKNTtIBWxnYtWqxVa5drgiTpL1PnJoPQkC6IdvPDCC7IdzPckweVgRjiea6ViNptnfHGBQABmsxnmmOtKOhwOnD59Wv6A6tdNdNKfutLMRfywOp0Ox48fjwvi6jAggrQoP3jw4IwTIgLKGGOfzwez2YyTJ0/G/fh0f5qrh8dsNscNNYhdacXuBB49ehQOhwPRaBRGo3HG8ATRCyaEQqEZAXouon6LnUHRVhPtMMbWd4PSS6HeqLvdbnnYz5rgZA2iVKnrn5rBYJjRMzs4OAiD0jMs6vLhw4dx+PBhGV7VR1tcLteM9XbseTSpULcjcQg7otw+PlYoFIrbtohe7Vg+n0+2NdGO0t3e0fI317bCkOC+DufOnYPZbI677GBVVdWMdW1s+1FvK9TTU+H1euWydHV14dChQzJgq4+8QGkToo4n2haIduB2u5NuT3LJjHCc6Mfzer3yT6x0nE4nAoEAjh8/Lg8T2O12uFwudHV1YWRkBEeOHJF7Dna7HS+88AICgQC8Xi9cLteC95zFDxgbfEUIV/+4BoMBH3zwAT744AP87Gc/w4EDB2bsaR04cEDO093dPaMXje5P6pVONBqV7SEQCGD//v04fvy4LHvxxRflxtFut+PFF1+U9f7EiROoqamRQyicTqdsK+pbjY6MjMxYAc4mdo9fBN/YdiBWbEJsfX/ttddmbNChnIQh2gw36JRJ6nZUU1ODc+fOxW0/xDpYnL+ibmM6nQ5VVVU4fvy4bE8h1TXJ1e03FYm2Leppgt1uj9u2JGpHp0+flvOcVk5YopVH9LzGEut+seNnNpvj6quo+1arFT6fL67+i3py8OBBPP/88/K1XnzxxQVfNSi2Tos6LpZdva0AEFfHE20LYttBsu1JLpkRjs2qk4AcDgd8yhmMYsN79OhR6HQ6uFwuGI1G2QOr0+lw9OhRRKNRvPTSS6ipqZF7Dg6HAw6HAy6XC4ODgzh58mTclxtRXSVjLiHl5A3EbMA/+OADvPPOO0CSnjKihdJqtaioqJDtQfReHT16FD6fD+fOnYPD4ZAb9ZqaGhw4cAAupdcott6fPn0aOp0OJ06cgNlsnnEkY64TmNTEytdqtcr28MEHH8jXVW/UiRaTetvy9NNPy3Y0ODgInU6Hl156CRqNRm4/xIk94kieaGOHDx+WAfjAgQMwGo1yg37y5En5HkjxJPNYXqVHLbZDRYRaJAkOREgw3KGmpgaBQCAuP81WX0+ePCnrf+w2wWq14uTJk3C5XDh37tyM/IR5DKsQyxO74/bBBx/Icf5i+v0q4XWO3UtwnT5fmhfOFteYTNS9L8Z1HT58GDU1NfjCF74Ag3Ipt0QOKdc5Vl/HMpfoeJ3jjIq9znFkAdeQXIh026Go90ePHo07nBWJRPC5z30OAPDOO+/A6XTixIkTs9Z3cW3L1157bcZKOFeEeJ3jJae+CchCblYwX+m2I7E9sNvtOHr0aNw0cf3w06dPY2RkBC+++GLC+QTRJk+rrjWeS3id49k9twyucxxIcKLfbLxeL55//vmEuejIkSNwOp1wKNfiFtuCDz74IG4+QVzneLZ2sNwlus5xwnCcCyuwSCSCaDQKrVY7Y49JPU30ViSrOOr5cxHDcWap75CXbv1cqJByRnA6G1RRzxPV49hpUA5pJ5pPmKvN5AKG46WnDsfpdoJkQrrvOdv2IHYaUmhHs71WrmA4np06HPsWcEOz+RI7c6kS9RIJ1vHqaXNtC1ZCHU8UjmcMq0CSy6xlU0h1mbdUiL2kRD+Gepoh5lI/iajnJ1IzJLi6SjZ5lUsmpkPU80T1OHZaKvV9rjZDNB+GmBPrFoMIKumYrX3ETpttPiGVeWhlsS7ghmbzIYYApUPUy0TPU09LNp+wUut4wnAsPuRihYH5/LhEi8mc4Cot2RIKheY865koFxkWeSczkuTycETZlOjEvGxJ98gIpSZhOIbSe7wYYcCnXEaKaLkzm80ILMIdfwKBAFd2tGJZrdZFOTLZ1dW1qEOhiITF2lakO/SOUpc0HGMRestEjzHDMeUCg3JzgWz2CHR1dXFlRyuaTqebceWKTPMmuI4+0WLK9k5gKBRCIMH1jikzZg3HIrhmIyCHlBOO+MNSLrEq16LMxoa9q6sLVVVVPAxMK55BuXlHNnrX3G73jGuGEy02sRMobiCTSSHlmvY8MpI9s4ZjxATkTP7AgUAAEeWOW0S5xm63I6DcXjZT3G43qqqquEGn+0ZNTQ10Ol1GO1/cbjfMZjPbES0LBoMBVVVVGe1BFj3G6VydgtI3ZziG8gOLK1gsJBBEIhG43W65R0WUq8Qe+0J3GgOBgLxMHDfodL+JPTq5kG1LKBSC2+2G1WplO6JlReSn2DvQzUdEuTFHJBJhj/EiSCkcQzlEIH4Qn88n78aVipGREbnyYwiglcJgMGD//v3wxdwtL1UiFMe2K6L7kcFggNVqRSgUSjtAeL1e+RzRE020HIme3nTzkwjF4qoU7FhcHAlvApIKMWZYXCpneno6brpGo5HTRO8AZY+ONwHJKPVNQFIh9uqh/B6xbUJcVF2r1SIajcJqtXJDnmUh3gRkyalvApKK2G0LYm5cA6UdxV5qlO0o+3gTkNmpbwKSClHHR0ZGYDQaZ+Qnsb0QdZtDULMr0U1A5h2OExF3SmEQXnwMx5k1n3CcSCgUyuk7B+UyhuOlN59wnIjoTea2ZfExHM9uPuE4EeanpZM0HL/44ov4yle+Ejcz5ZaNGzfiq1/9KsNxhrzxxhvqIsoxv/71r+FwONTFtIheeeUVfOpTn1IXUw4pKSnhofxZ/Omf/in+9E//VF1MOWTdunU4cODAzHD8/e9/H88880zczJR7nnzySYbjDBkeHlYXUY5566238Oyzz6qLaRG9+eabvNvjClBaWqouIkVzczOamprUxZRjvv71r8eF45RPyCMiIiIiWukYjomIiIiIFAzHREREREQKhmMiIiIiIgXDMRERERGRguGYiIiIiEjBcExEREREpGA4JiIiIiJSMBwTERERESkYjomIiIiIFAzHREREREQKhmMiIiIiIgXDMRERERGRguGYiIiIiEjBcExERDkrHA6ri4jue36/H06nU11MKVqR4TgYDKK7u1tdnFR3dzeCwaC6mIiIlqm2tjYUFRWhqKgIGo0Ge/fuXRbrcY/HA4/Hoy4mSpnH44FGo0n4l6xudXZ2QqPRoKGhAQDQ0NCA+vp6mYWCwSA8Hk9G20g4HIbH44Hf71dPynk5EY6bm5tRVlaWcuBtaGiA3W5Paa+pp6cHdrsdzc3N6klEi06swJL9ZXLFRpSrmpub0draCgCwWCwwmUzweDwoKytb8g313r17sXfvXnUxUdr0ej1sNlvcn16vV8+W0KlTp9De3o66ujpA2Zncu3cvent71bPOW3d3N/bu3bsi81NOhONwOIxgMIiJiQn1pIQaGxtRX1+P6upq9aQZqqur0djYCIfDoZ5EtOicTqfcuCb6S2WHj2gl6+npQXt7O0wmE/r6+tDX14ehoSE0NTUBSnCGsuFua2uD3+9HW1sbOjo6AGV70tHRgYaGBjQ1Nc3Y4fT7/WhqakJDQwPa2tripre1tcmyhoaGGR02bW1tcf8XQV39nrG9f/NdzmAwmHQ5aWWwWCw4f/583J/FYpHTRf1ItF3w+/0yO3V3d8u62N3dHTe/x+OR9Si2PBgMoq2tDd3d3eju7kZDQ0PcEKZgMIienp64eYV02pBoC7HPcTqdM+pzsuXMFs22bdumv//97+OZZ55RT1s2Ghoa0NnZic7OTjgcDnR3dyMcDqOurg5OpxPhcBgOhwMmkwlQfvxwOAybzSbLxA8ZDodRWVkp96aCSk+dyWSCzWYDlJVSd3c3hoeHYTKZUF1dLV9nOXvyyScxMjKiLqZ5GB4eVhctCr/fL1diPT096O7uRl1dHWprawFlZRm7cqTk3nrrLTz77LPqYlpEb775JoxGo7p4QZqbm9He3o6mpiYcO3ZMlov1tl6vR11dndxuWCwW+P1+2Gw2nDp1Sg6/MJlMcgN8/vx52Gw2eDwe2esrpuv1evT19cFkMkGj0cRNa21tRUtLi1wGMV0Q26yysrIZ79ne3o7Gxsa0ltPlcqGurg7BYBC7du1COByOW051eMqU0tJSdREpmpub5Y5Zpoh6aLPZcP78efVkAEB9fX1cSBT1p76+XtYfj8eD8+fPw+l0orOzU84rXle0JdEbLXLT+fPn45ZBBNihoSGZhWLbijA9PZ12G+rs7ERhYSHsdntcuUnZ+dXr9Whra0Nra2vC5cyUr3/963j77bfl45zoOVZrbm5GQ0OD3KNubW1FWVmZ/AHF3pQ4fOB0OlFWVibntdvtaFDG5QSVvRex1yNWOg0NDWhtbUV9fT327t275Ifq6P5gsVhQX1+P+vp6uZFTl/n9fuzdu1eOt2xoaJAbz46ODpSVlaGjowN79+7Frl27ACV0i+eUlZXF7eXHPk+j0WDXrl1x04PBYNz7iY020VIQ62J1CNTr9aivr5cdH0I4HEZfXx9OnTqF1tZWBINBtLS0YGhoCENDQ3LjC6Wu19fXy95oh8OBcDgse8iE2tpaOT3W9PR03P8dDgeCwSBsNhuOHTuGoaEhuUFvb2+PeWb8cnZ0dMy6nH6/H3V1dTh//rzsNU+0nJTbPKqxx2VlZbLc6XTCZDLJ+jGbU6dOob6+HlB22EQdnJ6eRn19PYaGhjA+Pg69Xg+PavieCNixwRhKwD516pT8v6j7og2J5ZqrDdXW1sqjPeI54kiJOIoyPj4et5wmZRhVNrdDORmOhdLSUvT19ckVVKKudvFDQekdGBoagsViQWdnpwzTsWJXnuPj42hpaUEwGFyRY2oo94ig6vf74XA4YLPZ0NnZKXf2xGE0UY/FXnjscywWC1pbW2Wd7uzsRFNTE/R6PVpbWxEOh9Ha2irbk91uh8fjkT3YHo9H9loRLbbCwkJ10axaW1vluOT+/n4AQH9/f1yniNgW1NfXw+FwoKenBw0NDXKDrq7rTU1NMJlMcWEhGZPJhMbGRnmylHrHVGhqapLLKXYAent7457jVw6V19XVweFwyOmxvYK0ciQacwxlO4CY8faijqWrtbUV1dXVaG1txd69e2fUcyjB1xZzFH4uog05nc5Z21BraytMJpPcZomdv9jOHtEOYpczdjrDcRJiZSK64xN9UWJlGPsDu1yupIefxA9ZV1cnw0KivSmipaDX6+FyudDX14f29nZ5SFddN+vq6jA0NASXyyUDb3t7O9rb2+FyueQOYjgchkUZ1+ZyudDS0iJ3JkVgEK/tcDjQ2dmJvr4+uFwueYiLaDGJ3jP10bygchRwto4M9QYaSlsRdb65uRl79+6VvbqJthHp6u7uxq5du9CqnEAoAo5aovYUW5bt5aTlR6ybxZ/oqRUS1ZlUBWOOkvf396OysnJBryeIuinG4yerm7O9lzgKVFlZiXA4HLechYWFKQf1hcjpcCzM1pMwPj4OKHvvgkkZX5zoxxErz0TTiJaaXq9Hb28v7HY7ioqK5LAJtdj6LsZP19fXy8NzogcqHA5Dr9fLs46LiorkRlwQPRJ79+6FRqNBc3Pzko3JJhLj79vb2+NOXmtubpY7fMmIYNrY2IhTp07h1KlTMCnnlSBmqMP4+DhOnTq1oLG2YjlEh4t4v1ROFBeBQhy6jl1O0V6hHIZe6HJS7hHrd3F+FWI6M1LV39+PYDAoh+eoh/nMlxjDLIYIzVU3TSaTzFstLS04deoUWlpaYLFYYLPZ4Pf7s7Kcc1kR4Xg2YiUTW4malUvDJapM6sMWwWBQBojF2Fshmk1nZ6cMr8eOHUvphASx89jS0hLXC3H+/HmYTCY0NDSgo6MDtbW1OKVc/idWa2ur7Kmuq6uDx+NBfX19wvZDlG02m00eMWlqaoJGo0FRURG6u7thMpniTpBTa2xshF6vx969e2G327F37160trbOGMfcoJzToh4nmQrxGmIbI7Yb4sSt2Xq2BbGcTU1NccspzqNRv+Z8lpOWP/WYY41ynWNxFFz0qu7atWvOS7SJOiPqoAitHuUqEMmGVcxG1HUx1E6UhcNhNCiX1E2lbra0tCAcDst2uWvXLjQ1NcmLIkC1nOojpdlwX4Rjm80mK5Hdbpcb/0RhV/SSiR92r3LW5XzG8xBlmlgBNjU1ob6+Xg4bmo1YaU1MTMCijFETl9MJK+O9oLxmXV0d+vr65HPFCquhoUGG52SHyYgWS2trK06dOoW6ujpYlCu4tLS0yDPiEXOEMLbnymKxoK+vT17xIRwOo6WlRW4TXC4XbDFn57e0tMS9hhieN9uRRfEaIiQ0NjbKMf39/f3yNUVHTKLlNCln6osT+sRyiqtziM/u8XgwPDw8Yzkpt+kTjDVW173z58/D4XBAr9ejurpa1gGxfhbZR8wvLllrsVgwPT0Ni8Ui1+e9vb2ora1FU1OTfI5YhsrKyrhliyVewxYT1mPbUGlpKY4dOxZXN8XniNXU1CSPjogrtojPZzKZ5HL29PTMWM5syYlLubW1tcHj8cgfv66uDhMTE3Lco9/vR3NzMyorK9He3o7m5mb4/X45fzgcRlNTkzyMYLFYcOzYMViUM/9jnwuld66jowN+vx8mZaB7U4Yv1ZINvJRb5iyHYQPi8jWtMZeL8qgukwPl6IZJOWs50XNEwFWP0WxpaUFra+uMy+SIFVS9ckkgMU8ssfJazngpt6WXjUu50eJj6E5O9N5TblNfyi0nwjGlhuE4c5ZDOPYr1zwWPWNCMBiE0+mEXq+HQ7nut165tmuy50AZWtTf3w+9Xo/Kysq4vXcxrbKyEhaLRR4OFvN4PB7Za11dXT1jz385YjheegzHKwPDcXIMxysDw/EKxnCcOcshHNPCMBwvPYbjlYHhODmG45VBHY5X/JhjIiIiIqJUMRwTERERESkYjomIiIiIFAzHREREREQKhmMiIiIiIgXDMRERERGRguGYiIiIiEjBcExEREREpGA4JiIiIiJSMBwTERERESkYjomIiIiIFAzHREREREQKhmMiIiIiIoVm27Zt09///vfxzDPPqKdRjnnyyScxMjKiLqZ5GB4eVhdRjnnrrbfw7LPPqotpEb355pswGo3q4pzU3d0NvV6vLs5p/f39aGxsVBfPUFpaqi4iRXNzM5qamtTFOam/vx/j4+Pq4pwWDodhsVhgMpnUk+J8/etfx9tvvy0fMxyvIAzHmcNwnPsYjpfeSgrHHo8HNptNXZzTnE4nHA6HungGhuPkVlI4Xol1PBgMAkDa4ZjDKoiIiIiIFAzHRES05ILBINra2uSf3+9HR0cHAMDv96tnB5SeLqJc0tHRIeu40+lEd3c3gsGg7OFU6+7uVhctmXA4rC5asRiOiYhoyZlMJrS0tCAYDKKlpQUWiwXV1dXw+/1obm5GMBiUIVn829vbCygheTmFCKJkGhsbUVpaiurqajgcDnm4v7m5GR6PB36/H+FwGOFwGMFgED09PYASTEWQXkydnZ2w2+3o7OyUIT5RW+vs7FQX5bQ5w3FnZyfq6+vR0NAg9+KXmliO1tZW9aQZ/H7/olcmWvk6OzvR3NyclXYhehXq6+uT9pgl0tPTE9fbNptwOJzWaxMthZ6eHphMJuj1euj1ehkUxL9Q2qLf74fJZEqp7hMtJ6Iul5aWwmQyoaenR4ZjsfMXDofR1tYGk8mE5uZm1StkV319PSwWi9weTUxMoKenRx7pCQaDcDqdgNLL3dHRsejLmA1zhuP6+nrU19fDZrOhsbER3d3daGtrkyuhtrY2tLe3xx0SQ8yhA7GH0dHRgYaGhrig6nQ6417L7/cnfI3Yx83NzXKjbrFYZHlTU5PcoxGPw+EwnE4n2tvbgZhAI/Z+mpqa0NbWdl8dKqDMqK+vR2NjY9J20dHRAafTKdtFbLn6sbpdAEBLSws6OzvR0dGBYDCIhoYGWVc7OjpkW4DSa9bW1gaXyxVXlzs7O9GmHJ4WbUu8V09Pz4xlEm21ra1Ntp/lZmRkJO6PVj4RjJNdKWJ4eBhNTU2wWCwYGhpSTybKCUVFRXEnjcWuf4PBICwWi/xbynVzYWEhqqurE57gJq5+UllZOWOblmvmDMdqFosFDodDjvUSIbO1tRUOhwOlpaXweDzykIHYwwgqh8piV3Dnz59HS0sLKisr4XQ60dHRIV9DbNBbWlrkXpTf78exY8cwPT0NKD9EZ2cnSktL0dTUhI6ODvT396O6uhr19fXo6elBZWUl6urq4PF4oNFo0NjYiPb2dvj9fpSVlaV0pi7RXES7EAHT7/fD4XCgubkZDocDhYWFce1CHDoTdTq2XYTDYbkjZ7PZ0N7eLg8z9/T0wOPxoLGxESaTSQbdlpYWlJWVyff2eDwIBoNwOBzo7OxEOBxGdXU1jh07ho6ODlRXV8Nms8m26XA44HQ65XIt17OvX/mnH+H3d+/B7+/eg1f+6cfqybSCBYNBDA0NwePxxI01rq6uRkdHBzweT9IATbTcie1BZWUlenp64o6OmEwm9PX1yXX7Utfz4eFhBJVhTqLXGErvd0dHB/zKkZxclnY4bmhogMfjkQFVfAHDw8NyhSW6/kUPr8lkQmNjI5xOZ9wPLn5g8W84HJavEfvj6/V6hJVr1UHZwxImJibke1dXV8v51ZUnGAyir68PHuVSJXV1daisrER7e/uS7oXRyiDGixUWFgKqy8Ykaxd6vR4tLS3o6OiY0S5Ej7TD4ZDtYnx8HJWVlbJui/dStyNBPC/20jyiLcXOI+arra2FxWJBbW0tWltb5XIuJ83fbkLztxvlv7TytLS0yP+LzgtR1trainA4jFOnTsnpNpsNlZWVcjrRcmez2WSeEeOOGxsbEQ6HUVdXh9LSUjgcDtTW1qKxsRF6vR5NTU3w+/1wuVzql8s60f7q6+thUs4NMJlMcLlcaGlpgcPhkKMMHA6HPFqfy9IOx6WlpRgeHp5xHdja2lr09vait7cXer0epaWl6O/vlxtfEULFBh0ANBqNHDZRXV2N6upq9Pb2oqenZ8aGXoSNtra2uF4Dh8OBoaEhuSejZjKZ0N3djbq6OvT398OvjEH2eDxwOp3QaDTqpxClrbCwMGG7EHU6tl0MDw/P2i6g1FtR5+vr6zE8PIz+/v4Z7QLKe6vbhcVikcszMTERNz+UkNzX1yffR8wXVIYmFRUVJXyv5YDBeGWL3bEU/xf11GQyoa6uLq4cSthYaddnpZXLpIyjF/8X/4o6LOq4Xq+XIdpkMqG+vn7ZrpeF5b58qVrSm4C0tbXF9RLQwvAmIJmjDrmUe3gTkKXHm4Asb7wJyMLxJiDLm+g0jd3pTkR9E5AlDcfBYHDOBabUMRxnDsNx7mM4XnorKRz39vbK4YQrxfDwMMPxAq2kcCzOOVlJwuEwbDbbnD3ayyocU2YxHGcOw3HuYzheeispHN/PGI6TW0nh+H6mDsdpjzkmIiIiIlqpGI6JiIiIiBQMx0RERERECoZjIiIiIiIFT8hbQXhCXubwhLzcxxPylt5KOiGvu7t7zjPec41Go5E3z5oNT8hLbiWdkNff34/x8XF1cU4TN1aZi/qEPIbjFYThOHPSCcf37t3DtWvXcPv2bfUkStO6deuwdu1a5OXlqSeljeF46a2kcLwSrwGb6mdiOE5uJYXjVOtDLkn1MzEcr2AMx5mTSji+d+8eRkdHV9ye9nJQUlKCkpISdXFaGI6XHsPx8pbqZ2I4To7heHlL9TOpwzHHHBPNUygUYjDOktHRUYyOjqqLaYXr7OyUf3Px+/3qohVnpd2QgX4X1kQdn+v3zcU6PtdnUkt3/sWSVjienJzEJ598gt/+9rdZ/fvkk0/SOkQtevBCodCM18rkXygUQiQSUb893YcmJiYwOTmpLqYMGh0dxY0bN9TFtIL19PTAZrPJnp5gMBgXEPx+v7wdbEdHR9zjcDgMj8cj511KPT09cY87OjoAJfynyuPx5GQ4otk5nc64Oq6ut7GPe3p6ZkyPrfNLKRgMoru7Wz4W/1fX/bk4nU510bKQ0rCKe/fu4cqVK4seDFM5tBqJRHDlyhXcu3dPPSlr8vLyYDQaMzIuMpM4rCJz5hpWMTw8jKmpKXUxZZhOp8PWrVvVxSnhsIqll+6wCrvdjsbGRnniW2dnJ0wmE4qKijA9PY1wOCxPsGlubkZjYyM6Ojpw/vx5NDc3o7a2Fk6nE6dOnVK/9IKlcni2u7sbw8PD8Hg8cLlcaGpqQllZGcLhMBobG9HT04Px8XFoNBr4/X5YLBbU1taivb1dzgdAzis+j3i+CNmNjY0yVFRWViIcDiMYDMJkMqV08pGQymcCh1XMKt1hFQ0NDfKW3TabLa7etrS0oLOzEzabDcPDwwgGg9Dr9RgfH58RpltbWzN+gmgq9SEYDMrQbjKZMD09Db1eD7/fj9bWVnR0dMBkMiEYDMo6KZZzenoawWBQngiq1+tl3Q2Hw7BYLLKNazQalJaWor+/H3q9HpWVlejt7QWU+p+qVD4T5jusYimCMZSeoytXrqiLpWvXruHjjz9e1GAMALdv38bIyMiivy8tHwzGi4O98/cXEQ6h9EAVFRVhYmIC4XAYfr8fTU1NaG1thcVikUHQZrMhGAzGbTyXSn9/PxobG2Gz2eD3+1FXVyc35L29vTIQNDY2orq6GrW1tQgGgygqKkJtbS1MJhNKS0tlQBChIvZxYWEh/H4/SktLUVhYKHfki4qK0N/fH7c8tLx5PB4Eg0H09vZienoaHo9H1mkRoBsbG1FfX4/h4WHo9XoMDw/LNrEUgsEgqqur5fJNTEygrq4ORUVFACDDfG1trazroqe7vr4eJpMJLS0tGB4eRm9vL2w2G/R6PYqKimT7nZiYgN/vl/W/r69Pvv9iHU2ZMxxPTk4uSTAWwuEwbt68qS4GlNC+VG7fvs3xpkREGWQymWCz2WCxWFBaWio3wpWVlSgrK5OHctUbyImJCfT29qbVo5QNpaWl8Hg86Ovrg8lkQn9/vxxKIXrRUjExMSF740QImpiYQDAYxMTEBKAEKxEe+vv7UVhYGPcatHyJYRUWiwWVlZVobGxEXV0dTCaTPFIQO2RB6OnpQWNjI6anp9WTFo3FYkF3d7c8ciHa5NDQEDweDyorK9VPmdPw8LCsv/39/fJIRU9PD0pLS2X7FkdJFsOcwyo+/vjjJQ3HSDK8YnJyEr/97W/jyhZbXl4eysrK1MVLhsMqMmeuYRW/+tWv1EWUBQtpYxxWsfTSHVahPgTa2dmJiYkJOBwO6PV6dHZ2QqPRwOFwyHn9fj9MJhO6u7sxMTGB6upqWCyWuNfNBPWyJSMOhev1evl/KM+vq6uTPcCx/0LpcRP/F88Th6cTvZ66Z1m8hihLRaqficMqkkt3WIX6Ow8Gg3A6naitrZXBc3h4GA6HA8FgMG6oAZQxuqKOp/Nbp0K9bMnE1kO9shMn2mB9ff2sdVwIK0eDxJGf2GliRzL2tdX/T1Wqn0k9rGLOcPzb3/52yQ9tJhp3ODExgcuXL8eVLYVHH31UXbRkGI4zZyHhOBKJyB1KnU4X92+sSCSSsDwXxX7m2cJQup+Z4Ti3pRuOl7NUN7K5JNXPxHCcXLrheDlLtT7kklQ/kzoczzmsIpFIJAKv1wuv14tAIIBQKKSeRZptWjYEAoGUli1ZOdFCDQ4O4qWXXsK5c+cQCoXg8/ngdrsRCATijsK43W55BZSlPjqzUIFAAOfOncM777wz4/PEPna73TOmERERLSfz7jkOhUJwOp1wOByyN6irqwv79++HVquV84l5AoEAqqqq4l4jVen0HMcul1arRTQaxfHjx3Hw4EEAgMFgQCgUQldXFw4ePIhAIACdTgeDwaB+qZRkouc4Eongf/6PU2j+9sLGy7HnOHMW0nMMAF6vF0ajEQaDAcePH5d1LBKJYP/+/XC5XJienkZVVRWcTicMBgPMZjOsVqv6pXKC1+tFNBqFVquFTqeDy+WCVqtFTU0NfD4fotEo7HZ73Gf1er0wm83yO0mEPce5bSX1HK/E20dDGf86F/YcJ7fSeo5XmnC2bh+dLBwDkKGzq6sLNTU1cLlcqKiogEajwcjICKqqqtDV1QUAcvrhw4fVLzOndMIxYpYrFAohFArB7XbjwIEDcDqdOHjwII4fPw4AMJvN0Ol08Hq9cDgcaR3uFTIRjr/0xa/g/V++j2f+r2fwV3/139STU8ZwnDmZDscGgwFVVVXwer1x4dhoNCISiaCmpkbu1OUir9cLjUYDg8Eg23w0GoXVaoVOp5Ohv6urS34POp1O9pyLnVc1huPctpLC8f2M4Ti5lRSO72fqcDyvYRWJ6HS6uB5jNbPZPOv0bBK9WWqhUAgVFRWwWq0YHBxUT140X/ziHwIAfvRPP8Kxv/rddSwpt8XWN51OB6PRCLfbDY1GgxMnTsijLQaDAW63G8ePH0dNTU3ca+QS8VkMBkPc5zCbzfLzhUIh+b3odDr4fD75fyIiouViQT3HLpcLdrsdPp8PVqsVhw4dwuHDh3HkyBHodDocOHAA586dg1arRSAQgNFohN1uV7/MnNLtORbLJXqlBgcHUVFRgcHBQRlKAODpp5+G0+lENBqdV482MtRzDADH/qpdBuPmbzfNa4gFe44zZ6E9x5QZ7DnObew5XhnYc5wce45XBnXP8YLC8WJJNxwvpkyFYwBoa/3/4n/+j9/d2Wk+AZnhOHMYjpcHhuPcxnC8MjAcJ8dwvDKow3HGhlXQwrW0/t/4kz/53U5KbE8yERERES0O9hwvUCZ7joW/aP4uXnnlRwCAltb/im/+hz9Vz5IQe44zhz3HywN7jnPbSuo5vp/P5GfPcXIrqec49o6MK0kqN0xR9xwzHC9QNsLxK//0I/zFt78LANjx2A78y//7qnqWhBiOM4fheHlgOM5tKy0cp3LZs1yS6hVyGI6TW0nheCXW8WAwCCi3pp+NOhxzWMUy8/Zbb8cF43965R/UsxARERFRljAcLyO//OX7+A/f/DMAgPEhI/7H//wbXuaKiO4L4XAYHo8HHo9H9vbMVypDIGLn6e7ujptGlC1+v3/R6njsMIlgMAi/36+ehZKYdzgWt2ie7TbMs03LllAoJG8dnYz69rbLwS9/+T6+/if/FpFIBMaHjPinV/5hxRyOJCKai9/vlyG1vb1dhodwOBw3DjI2VMROi/2/Xq+Xj2OfG/s40dApMX2hwYUomba2NkDZIevo+N1J97PVUySp87H1Xl1f1Y+htC+LxQIkeQ7Fm3c4drlc0Gg00Gq1iEQiMoxGIhF4vV5AuRtWbEgNBAJZD8xOpxMajUY+TvT+brdb3j0PAEZGRrK+XLMZGRnBt775ZwzGRHRf27VrF2w2G1pbW+F0OtHd3Y3W1la0t7fD7/ejra0NHo8Hra2tCAaDaGpqgtPpREdHBzo6OuB0OhEMBtHT04OOjg60t7fHlbe3t6O1tTWuh9put2N4eBgdHR3w+/1oaGiQzyfKNL1eD5vNhqamJvj9/rh67HQ60dvbK+s8AHR0dMDj8aChoQHBYBANDQ3w+/3o6emRjz0eD5qbmwEAdrsdPT09cDqdsue4o6MD4XAYdrsd4XBYPmc+9524X8w7HEejUYyMjCAajcLlcmFwcBA+nw8nTpyATqeTARTK7ZwDgQCi0ai8tWw2ieUSt4k+ceIEurq6EAqF5F25YpflnXfegdPpXLLe5P/wzT/DyMgIgzERUUzPb3d3N4qKijAxMYHe3l4UFhaiv78fdXV16O/vR1NTExobG9HY+Ltrwjc2NsadeFNfX4+Wlhb09fWho6NDhg5x0lF/f798vuhJq6urQ2NjY1zPHVE2iPqs0WgQDofR19eHwsJCTExMyBORw+Ew6uvrcerU7+6BUFdXF3fSnM1mQ319PaAMtRD1OfZEy2AwiPr6etTX18Pv96O0tBT19fVzXsHhfjbvcFxRUYH9+/cjEonA5/NhZGQEWq0WWq0WZrMZVqsVBoMBZrMZiOm1zXYPrVarxf79+2G1WhGNRuF2u6HVahEKhVBTU4Onn34aAOStbkOhEEZGRhCJRBCNRtUvtyi+/1f/TZ58x2BMRPe7trY2OBwOlJWVweFwoLGxEbW1tTCZTDh27Bja2tpksMAsY4aDwaAMvSaTST4WZaWlpejt7QWUEEK0WMSY4cLCQtTW1qKlpUVeVu/YsWPQ6/WyZxkAOjs7454viHHEer0eJpNJ1ufYNjE9PQ0o7cFkMqGoqEhOo8TmHY5FiDObzaioqIBOp4NOp4PRaITT6YTP55PzGI1GaDQaRCIRGZazJTZcms1m6HQ6mM1m1NTUwOl0wuVyQafTQavVyn81Go38/1J4TLlcG4PxytLV1RV3BCUdc42ZF0dA3G63ejJRThLhta2tDdXV1bBYLGhsbITT6URPT4/s5RLB2WazYXp6Gm1tbbBYLKiurpavJf7f398Pp9Mpe5hjX6u2thYWiwWlpaVoampCS0sLTCYTKisr416DKJMsFgva2towPDwsj2KEw2E0NTVBr9dDr9ejo6MDwWAQFosFLS0tcdNE/aytrQWUHby2tja58yjqs8lkktf3bWpqQltbmwzQom6L16CZeJ3jBcrGdY7ni9c5zpxEJ+vESuU6x0eOHIHdbofL5cLhw4fh9XoRjUZRU1Mjj6So/+/1euWYeTGe32g0wmAwzHi+wWCAy+VCTU2NPMlUzBsKhWAwGNSLlHN4nePctpTXOe7o6JCBIRNW4jVgeZ3jhVvK6xwHlStQpHIjl1SsxDoee+RoNrzOMdEiiR1i5PP5cO7cOWi1WrjdbrhcLpjNZtkLbDab5TwVFRXwer1wu90wGo3yxNbBwUEZfAOBAE6cOAG73S57qMW8y/FqLESLTT3+mGilMZlMGQvGFI/hmCjLYodIXLp0CQaDQfYoi+ERYgy8GO4jaLVaGYjNZrOcR0yLnVe8hhhKREREROmbMxyvW7dOXbTo1q9fry5aFsuVn5+vLiKK43Q6UVVVJU9QjUQi0Ol08Pl8smdZp9PJK6uIUCv+FZdMFEMpnE4noIytN5vN6OrqQlVVlZzfaDTGXZUlViAQgM/ni/tzu93o6uqSvc/i+uXp/Innp/sa8xmLTURElG1zjjm+cePGko9jLSsrQ15enrp4ycdDb926dVndwY5jjjMnE2OOF8rlct3316HkmOPctpRjjjNtJY7H5JjjhVvKMceZthLreNbGHK9fvx4lJSXq4kVTUlKSMBgDwObNm7Fq1ZwfISvy8/OXVTCmled+D8ZERERLIaVkWVJSsugBedWqVdi8efOs77tu3TqUlpZizZo16klZtWHDBjz00EPqYiIiIiLKcSmFYygBuaysDFu2bJFhOVt/W7Zswfbt21O6UHVeXh62b98Oo9E443Uy/bd582Z5qayl6rEmIiIiouxJK+Hl5eWhsLBwRmjM9F9hYWHa4VMM/8jmX1FRUcKTA4mIiIhoZUgvgRIRERERrWAMx0RERERECoZjIiIiIiIFwzERERERkWLOm4BQ7uBNQDInWzcBCYVCs/5Gye4ap9Pp5G2jsyUajSISiaiLAeXOe9kkbn2txpuA5LaVdBOQ7u5uWCwWdXFO6+7uTukGFrwJSHIr7SYgc90sI9cEg0GYTKY5P5f6JiAMxysIw3HmZCscU3oYjnPbSgrH4XAY4XBYXZzz5goNYDie1UoKx/dzHWc4XsEYjjOH4Xh5KCgomPcNdxiOl95KCsf3M4bj5FZSOL6fqcMxxxwT0bK1bt06dREREVFWMRwT0bKl1+vVRURERFk1ZzgOBoPweDzweDzqSUREWbN161bk5eWpi4mIiLJqznDsdDoRDAYBAB0dHbJcDNoW0xJRD+yOfZzotYRkr6meL9kyqOcT05OVi2nq6US0+AoKCmA0GqHT6dSTiIiIsm7OE/La2trgcDhgMpnQ1taG0tJS9Pb2orGxEU6nE5WVlejt7YXD4cDw8DAcDgeamppgs9ng9/sRDofR1NQEp9MJvV4Pj8eDlpYWtLW1oaWlBR6PRwbTpqYm9PT0oLCwEH6/H+3t7QCAzs5O9Pb2wmQyQa/Xo7CwED09PWhpaYHT6YTJZEIwGMSxY8dgt9ths9nQ2dmJvr4+7N27F/X19ZienkYwGEQ4HEZrayucTicKCwsRDodRV1eHjo4O6PV66PV6NDY2qr+GnMAT8jJnrhPy/vzP/xzFxcXq4qwYGxtbtPdSy+R7T05O4sknn8QjjzyS9OzhvLy8jPUW84S8pbeSTsjr6OhAZWWlujineTwetLa2qotn4Al5ya2kE/La2tpQXV2tLs5p4XAYFosl6TZHUJ+Ql1I4DofD0Ov1qK6ujrtmXE9PDxobG9HR0YHa2lq0tbWhrq4OhYWF6OzsRFlZmVywYDCIlpaWuNdtaWlBU1MT2tvbEQwGZTDu7e1FS0uL/DCdnZ2wWCywWCxoaGhAdXV1wmUQ7+NwONDc3Ixjx46hoaEBp06dQn19fdzyTE9Pw+/3y0BeXV0Ni8UilycXMRxnzlzhuLGxEeXl5erirLhw4cKivZdaNt778uXL+KM/+iPs2bNHPSmjGI6X3koKxx6PBzabTV2c05xOJxwOh7p4Bobj5FZSOO7s7ER9fb26OKeJEQLphuM5h1VACQItLS1xKwa9Xo+hoSEAQF9fH/R6PUwmE7q7u2Gz2VBUVITGxkY0NjaitrZWPk/0FI+PjwMxwxmCwSBKS0thMplw6tQptLW1yedA+YDqYQ/qZSgtLZWP/X5/3LxQPodYHovFgvb2dtkbLpZDo9Gon0ZEGbRlyxacP38eXq9XPYmIiGjJzRmOq6ur484YF93Ter0eNpsNbW1tqK+vh16vR21trUznoje3p6cHAOBwONDW1ga/3y+f293djdbWVnR0dKC/vx91dXUIh8Noa2uLC9RQevJaW1vR0tKSdBlMJpMcIiEOf4nXEe/T09MDvV6PYDAoh4zU1dXB7/ejo6MjZ4dUEOWS4uJi9Pb2qovpPubxeNDQ0IC2trYZnSMLkemTyXt7e+Uyqjts1BJ10qjPkZlNOBxOafnFEMZk3v/l+3j7rbflX7I7YVL21dfXo7m5Gc3NzbP+ZukIBoMJ69pCNDU1oaOjY8762tvbO+NzzPUcNafTqS5KqLu7W12UNXMOq0iVCLWNjY1zdl+nS9y2M5XXFSvVXB47PF8cVpE5HFbxO9l877GxMTz//PMptev54LCKpZfOsAqPxyPPW2lubkZLSws6OjpQWFiIuro6ed6Kw+FAT08PHA6HHBbQ0dGBcDgMh8MBvV4vT/h2OBxoaGhAfX09amtr48rTrXdiWEVnZ6c8itrb24vp6WnZgdTf3w+Hw4FwOIze3l6Mj4/LjhlxZLStrQ2nTp1Cd3c3JiYm5OcoLS3F8PAwhoaGYLPZ5LTu7m65PhKdVT09PSgtLYXNZov7TH6/H8PDw3EdVQDwy1++j6//yb9FJBLBn/zJM/j+sf8GcFhFRqQ7rEIM9ezp6ZFHrMPhsOxQRMxvKTruEBNCKysrUVdXh87OTjk01Ol0wu/349SpU3A6nQiHw/IIeTpih1WIoa9tbW2orKzExMQEqqurZd2zWCzyfY8dOxZX90QWhLLctbW1CAaD6O/vl3VpeHhYtlm/34+ioiIMDQ1hYmJCfheivXd2dkKj0chhs2IZ6urq4pb/f/6P/4Vf/vJ9AMBDDz2E5m83ZndYRSr0ej2OHTs25wLMR11dXcqv29LSgpaWlvsuGBPlmuLi4rR7GGhlCwaD6O7ulj2h4+PjaGpqkkcNTSYT/H6/rDfBYBCdnZ2orKxEbW0tnE6nPCIoQqrNZpMh0+FwoFE5mXwhOjo60NHRgerqahliRMAVRyjFNkiEIHGkRJwb09/fj+npafT09GBoaAh1dXUYGhpCU1MThoeH5Unk/f39MjyJ1xBBWoTb0tJSTExMYHh4OOHne+yxHfjHV/4B3/wPDTIY09IIK0cD/H4/qqur0dfXh5aWlhn1c3h4GEHlXCyTctEBsSPl8Xig0Wjk+VrV1dXyyPv09DRaWloWfO6Ux+ORO6fiogutra3ygghOp1MOU52YmIBTuciB0+mEzWaTQ1cLCwvRoYwOaGxslKMEhoaG5EUV+vv7MTQ0BIvFInuhS0tLcf78efT390Oj0chRAOJ9+/v7VUsM/Mn/9Qzefz+A//3//gR/9MU/VE9OS8bCMRGR2sTEBH7605+qi4kSGh8fh8lkgsvlAgAUFRUBMTeDEVcY0uv16OzsRHV1NYaHh9Hf3y/DBpReIvEn9Pf3Q69ckWihO2WNjY2yM0gso8lkkkFc0Gg0mJ6eluFdfA69Xo/KykpYLBZUV1fL11B/XjURPtQ9ghMTE/L/IlyoPfbYDrS0/t/qYloi4ih7WVkZkKB+iiA8Pj4ue5c9Ho8Mo4WFhYCysyWEw2FZ50Vdmi+bzYbGxkY0NTXJ+lhWVgabzSbrcjgclkc1RH2OHRKrV4a+qofnIsnyiXk8Hg8mJiawa9cuII1L7ep0OvzTK/+Af3zlH/DYYzvUk9PCcExEWTExMYF//Md/VBcTJbVr1y5YLJYZG1KTyYTm5mZ0KFclEsFBhNGhoSF5WNehnN8ixnSWlpbK3uSOjg40NzfPOKclHTabLW75xGs5HA54PB7olUPBomdZ9OgNDw/DZDLFXQ4uGAxCr5yvI15Lr1wZSrxPbW2tnC4+r8fjQWVlJRobG+H3+1FZWYnS0lJUV1eju7ubR06XMREY1XVc9MyK+qnX69HX1yePnJtMJgwPD8vhDR0dHfLqWhaLBX19fTCZTPLoyUKHwsS2kdg6Lnqy1XVPDAExmUyyHoohH2InMPa1Yv+tra2Nq+8WiwWFhYUoLS1FaWmpvLxvbW2tbFvJ2rBOp1twMEYmxxzT0uOY48yZ75jjM2fOyP/v27dP/n9gYAA7d+7EmTNnsG/fPoyOjqKkpEROn4163O/AwAAmJycBADt37sTo6CgKCgoAIOlrivdPl/q9UyWC8eOPP47f//3fV0+WHn/8cTl+M9M45njppTPmOB1+v1+e0L1YeCk3SiTdMcepCgaDaG5ulkdRFgMv5ZaFMcdE9Dv79u2TwXhkZAQDAwO4cOECoITZgYEBdHV1YXJyEiMjI/B6vRgdHcXo6CguXLgg503mwoULKC4uRnFxMQoKCmRYXr9+PW7cuIEbN24AQNz/i4uL5WNRBgCjo6Nx84+OjsppqfjNb36jLko5GBPNVzAYXNRgTLTYgsEgTp06pS6mRcJwTJRBoVAIZ86cwfnz5zE5OYmBgQEUFxcjFAoBSg9uSUmJvOvc2NgYHnnkEXi9XoyNjWFgYCClnjYRjoVQKISRkRF0dXXh3XffxQ9+8AO8++67+Lu/+ztA6fV699130dvbi7Nnz+LChQsYGBjAu+++i7Nnz2JychJ/93d/hw8//DDmXeZ29uxZnD17Vj5mMKbFoD5LnWilSTT0ghYPh1WsIBxWkTnzHVbx4x//WB56FT3Du3fvlsMpzpw5g927d+Ptt9/Gvn378MMf/hDFxcUYGxtDVVUVRkdHsXv37rjXVA9t+PGPfywDdFVVFc6cOSMD94ULF+T7xP77wx/+EOXl5XjkkUeg0Wjw9ttvy17sUCgEm80mnxtL/d5qExMTePnll7Ft2zb8/u//ftrBmMMqVrZsDatYCqlcbzjX6PX6GSf3JcJhFclla1jFUhBXiVlpUtnGqIdVMByvIAzHmbOQcCzG9hqNRvnY4/Hgz//8z3HmzBns3bsXP/7xj7Fv3z6cP38e5eXlGBgYSDkci8Ab+3g+4XhsbAzf+MY3cObMGZSXl88rHCMmIEciETz55JMpB2MwHK94Kykc388YjpNbSeH4fqYOxykPqxDXk+zs7ITH45F3Kkm0l7HQy+QQ5arYk94KCgqwb98+FBcX4xvf+AYAYPfu3bK8oKAAe/fuRXFxMfbt2wej0Rh3JnsyJSUlOHPmDM6cOYPJyUmUl5fDYDCgpKREBln1vzt37oTBYMD69etRUFCA8vJyGZ5LSkrinpuuwsJCPPvss/jyl7+cVjAmIiJajlIOxyaTCfX19RgeHpZjYTweD5qbmxEMBhEOh+W/4k4unZ2dDMp0XykvL5d/UMYGG41GOT449t+CgoK46QUFBfKqE7OpqqrCPuWkPxF0xWuoQ3FsODYajfI9ysvLZSivqqqKe+58FBYW4vHHH1cXExER5ZyUw7Fab2+vvOh5ULmvt8fjkT3JHR0dqK+vn3GnHiIiIiKi5Wre4TiR2Lv0EBERERHlmrTDsRgTWVlZCZPJhHA4DIvFIu//rtfrUVpaisrKSrS1tSW9iwlRLsvLy1MXUZpGRkZ4qSIiIlp20g7H4vqS4t/Gxkbo9Xo0NjaipaVF3hqxrq4OLS0tKV0mhijXiHu+0/xFIhGuH4iIaNlJOxwTEfCVr3yFJ5suwOjo6Iq7TSkREa0MDMdE86DX63HgwAG8//776kk0h08++QS/93u/B6vVqp5ERES05BiOiebJZDLhr//6r1FaWopr167hxo0bWfkrKCiYUbZYf5l877t376KoqAjNzc344z/+Y/XXSUREtCzwDnkrCO+Qlzlz3SGPlj/eIW/p8Q55KwPvkJcc75C3Msz7DnlERERERCsdwzERERERkeK+CMfnzvThxvUpdTERERERUZz7Ihy7X+3Db4OfqIuJiIiIiOLcF+GYiIiIiCgVDMdERERERIqUL+UWCV/HqY7/jbc9AfWkZeuZ+j34mmMPXnzhf6H+P/8RPmUoxncb/haR8A31rMuSTr8e//XYv4fRtFk9KSFeyi1zeCm33MdLuS29xbqU29TUFKLRKCKRCG7duoWpqSlMTf3reSY6nQ5r165Ffn4+8vPzsWnTprjnLyfic0SjUUC5zbogll98lk2bNiE/Pz/m2dnBS7klt1iXcpuamsKtW7fwySefJKzjom5otdq4f5ejaDSKqakpXL16FVDVcajaq06ng1arjZueDepLuaUcjr9b/7dw/d1Pce/OPfWkZaux1Y7GFrsMxxs2rMMflH1bPduyZjRtwv+v7/+BTr9BPWkGhuPMYTjOfQzHSy8b4VhsVC9evIirV6/i6tWrcSEhVZs2bcKmTZtgMBhgNBoXZQOsFo1GcfHiRXzyyScIhUIyEKdDhORNmzZh+/btMBgM6lkWjOE4uWyF41AohKtXryIUCuGTTz6ZV93YtGkTdDodDAaDrOuLbWpqCkNDQ3F1fD7tNfYzbN68OePtdd7h+Ku7/j+4fmMVxj8ZQ2Q8PuUvV7kejissFRj0D+L/DP0VjKa5ezoYjjOH4Tj3MRwvvUyF46mpKYRCIfT39887DM9l06ZNMJvN2L59e8Y3vLGmpqbQ39+PQCAwr8Azl/z8fBgMBlRUVGD79u3qyfPCcJxcJsNxKBTCxYsXMTg4mJU6rtVqYTAYYDabsxqUp6amMDg4iIsXLyIUCqknZ4So45nasVWH45THHP9h3Wcw/KtgzgTjlWDQPwiDaVNKwZiIaKWZmpqCz+fDSy+9hDNnziAUCmUlNADA1atX8frrr8PpdMLtdmc8uIZCIbhcLvzgBz+Az+fL+OsLU1NTuHjxIs6cOQOn04lAIHeGQt6vRN1wuVzo7+/PWh2PRqMYHByEy+XKSt2Iba+vv/561oIxlO/s3LlzWWuvKfccA8CPOl+Ht3dQXbxs/WHt7+GP6j4TN+b4/2n+O/Vsy5aucD0amr6Ycjhmz3HmsOc497HneOktpOf44sWLOHfuXNaCQioqKythtVoXNHZzamoKr7/+OgYHl27bqdVqYbVaYTab1ZNSwp7j5BbScxyJRHDu3Lmshsi5aLVa7N+/f8G9r/39/fD5fEvaXq1WK6xWq7o4Jeqe47TCca4S4fjTj81vJZ0rGI4zZ65w3NnZieHhYYyPj6OsrAyNjY3qWeYtHA7D6XQiGAyiuroadXV16llSEg6H4ff7YbPZ4sqDwSD0ej30en1cuRAOh+HxeOb9vssFw/HSm284fv3119Hf368uXhILCQ9Xr17Fq6++mvFerfmab3hgOE5uvuF4OYTJWHv27EFlZaW6eE5TU1PyqM5yMN/2qg7HKQ+rIKJ/VV9fD4fDgV27dqGxsRHBYBAdHR3w+/0AgO7ubjidToTDYXR0dKC7uxtQgmlHRweCwSAAwOPxoKOjA+FwWL52U1MTamtrcezYMfj9foTDYQSDQbS1tcnndXd3y/cTrxcMBuHxeOR84XAYw8PDchmcTiegrMx7enoAIK5czOfxeNDf3z/jeeplIMqGl19+edkEYyiHol9++WV5Zn2qrl69CpfLtWyCMQD4fD643W51MS0yn8+H119/fdkEYyg7pD6fT108q0gkgpdffnnZBGMo7bWrq2vB7Y7hmCgDgsEgHA4H2tvbAQBOpxPV1dXo6OhAbW0tent74fF45HxtbW0Ih8Po7u5GbW1tXDjW6/UwmUwAgNbWVuj1enR0dKCxsRHt7e0ytNbW1qK5uRkOh0P2NDudTjmf0NraitraWkxPT8Pj8cBisaC6uhrBYBCVlZXQ6/VwOp1yPhF+/X6/fJ7f70draytaWlqWLBxHIhH8h2/+GX5/9x78/u49+Ku/+tfPSCvD66+/nnYIXQxTU1N49dVXUw4zkUgkrfkX0+Dg4LLa+bjfXLx4Me0Qulh8Pl9aQfeNN95YcAjNhmg0ildffVVdnJb7Ihz/8Z/sRskDOnUxUcaIYCqGY1gsFphMJvj9fjidTjmEobe3V/bE6vV6WCyWGT3HsYLBIPx+vxwGYbFYEAwGYTKZ5F/s8AibzQa9Xo+JiQlZNjw8HLdsQjgcRk9PD4aGhmSZyWSSwylie5LD4TCamprQ1ta2ZBtWnU6Hvzr236Ar1OHzn9+Nb387/UOZtHxFIpGkdWt0dBRnzpzBmTNnMDo6qp6cNq/Xqy6aUzQaTbp8aumecOf1enHmzJl5Ldd8LLdey/vJ66+/ri6SPB4PfvzjH2ekHgwMDKiLUpLqkQVxNYpU/fjHP8aZM2dw/vz5uPKBgQFMTk7C4/Hgxo0bGWnfUI7cLGQn5L4Ix79v24FNmxmOKXs8Hg9KS0tnhNza2lpUV1cDSvAMBoNyvmAwiOHhYVRXV8dtdG02G5qbm9Hd3Y2GhgZYLBaElXHAPT09sFgsMe8Qr7OzE93d3SgsLJRl1dXVsicaSij3+/3w+/2wWCwySJtMJjidThneh4eHUVtbK5/X09OD6upqeDweWbbYdDod/umVf8D3j/039STKcbNtyM6ePYu9e/di3759sv5duHABXq8Xk5OTGB0dxYULF+ICwcDAgHx848YNeL1eueG9cOECoIRSMc/IyIjcUCeTSjgWl7FK1YULF3Djxg3s27cPxcXFGBgYiFsW8bnEcqW7zMmk8lkos2a7lrXX60V5eTm+9rWvYXR0FCMjIxgdHZ1Rb9WPBwYG5OPYOi/OP4p9jmgnov4nEo1GU+o9TvdKFwUFBdi3bx/27t0LxCz7yMgICgoK8Mgjj8Dn8+Hs2bOy3qez3Imk8jmSWV1YWNj6xS9+ETt27FBPy2l+vx8ffPABTCYTuru7cfPmTdy8eRMejwfr1q0DAPnvSvG//tf/mnGnGZqf5uZmddEMYvjDunXrYLFYsG7dOjQ1NcU9Fj29NpsNJpNJltfX12Pr1q3y+V/60pfk61ZUVKCiogLr1q3DoUOHAABf+tKXEAwG8R//43/EunXrYLPZ5OuLHuWPP/4YZWVl2Lp1K5599ln5+jabDeFwGBaLBbt378bu3btx8+ZNfOlLX0I4HEZdXR0qKirkfHV1ddi9ezdsNhuCwaBc1oqKCoTDYbkMCxEKhTA0NIT33nsP/f39GBwclH9Xr17F3bt3sX79eqxZs0b91JSvHDAyMoIf/ehH6mJaRN/85jeh06XWMdHf3580OIyMjMht1I4dOzA5OYnLly+jrKwMP/nJT3Dnzh1MTk4iLy8P77//Pq5cuQKdToc7d+7g9u3bOHv2LKqqquD1emE0GhEIBOR1Xu/cuYNIJII333wTZrMZJSUlqnf/V3fv3oXZbJ61Dl6+fDmtcOz1erFnzx7k5eWhpKQEW7ZswT//8z/DbDZjbGwMIyMjMBqN8Hq9KC4uBpQAMzk5iV/84hcoLy+fdZmTyc/PR3l5ubo4odhhWhTv85//PHbv3q0uTmhoaAi/+c1v1MWA0sHy1FNPAQDKy8uh0+nw4YcfYseOHfjnf/5n7Ny5E2fPnsXOnTvhdrthMBgwMDAAk8mEwcFBXL58Wdb5YDCIyclJlJeX48MPP0R5eTk8Hg/u3LmD0dFR7NixA3l5eepFkDZv3oytW7eqi+P4fD7cunVLXZzU2bNnMTo6irGxMRQUFMhl/8lPfoKnnnoKb7zxBrZs2YI1a9bMWG6dTifXAbMtt1o0Gk35BNQf/ehHcRc0WLE9xz09PXKspF6vR29vL/x+P/r7+xFUztYnWihRj0TwFY/VQx1Ez616PvFYLVG5GDIB1fuKxyaTCZWVlQnns9lsca8n/i/mjZ0v2WMRtOfbdsQ1MH/wgx/A5XLJy1uFQqG4v/7+fpw5cwY/+MEP4Ha7F7T3TyvP6Ogobty4MaNH9ZFHHoHRaJQ9yeXl5di5cyeMRiNCoVBcLzMAjI2NxfW8FRcXz+vKGmqzBedECgoKcOPGDflYLJ/RaMTY2BjGxsYwMDCAgoIC+f8LFy5gdHQUBQUF815mDqtYXgoKCuT/b9y4gcnJSUxOTuL8+fOyjos6WlxcLMOj0WiEzWbDyMgILly4IHtiodQlcXRBMBqNce+VSDbqhsFgQFVVFR555BGMjY3JZY/dQSsoKEBBQcG8lzuTVmw4bmxsxMTEBPx+vwwQdXV18hD2Up1URJQtiQL1chB7Yfh0L10kLlifjYu80/KyaVPy67mXlJTI4QTvvvsuJicnUVBQIHtS1UpKSuDxeHD27FlcuHABBoNB9rCKMDkyMoLy8nKsX79e/fSk8vPz57xE1FzT1Xbv3g2Px4MLFy7g7Nmz0Gg0cpro3TYajSgpKcHIyAh27tyZ1jInM9v3Tdkx23e+c+dOdHV1YWBgAF1dXZicnMTAwEDSnZ+dO3fKnTtxRGT9+vVxITI2VKcjlbvnpXpESJicnJQ7e0ajUS772NiYnKegoAChUEiWpbvcarN933NZscMq/uZv/gbT09Ooq6vDv/zLv2Dr1q3YunUrbt68CQC4efOmDM0rBYdVZE4qwypobpFIBD/60Y8wNDSEu3fvqien7OrVq7h48SJ0Oh2KiorUkxPisIqll86wijVr1iQdjiB6hHU6HXbu3ClfU6fTYceOHSgpKZFDC7Zu3Yry8nLcvn0bBoMBZWVl2LlzJ8bGxuRhWaPRiB07dsgyo9GIrVu3ztkzVV5ePuctmdesWTPr2FK1vLw8bN26FZOTk/KzlZSUQKfTQafTYevWrfJQc1lZWdrLnMyXvvSllHu5OawiuXSGVeh0OgQCgYTDEcSQmtu3b2P37t3Q6XQoKyvDmjVrUFlZiYKCApSUlMh/RT1Zs2aNrA+3b9+WzxOvV1hYiIKCAjz66KOyncw2NEGr1WLPnj3q4hny8/PTGgMs6qlYfrHssZ9ty5YtyMvLQ3l5+Yzl1ul0sy53Ip///OexefNmdXFC6mEV98VNQO4XvAlI5qiv7EDpy9YNEFK9kQFvArL00r0JyHK6+YdaOjcXiEQi+Md//Me0jpIsplTbkMCbgCSX7k1AQsqtoperp59+OuU7KbpcrmU77E2r1cLhcKiLk+JNQIgo68R1XjMdjKGcCJLumdKUG6xW64IOhWZLfn4+vvKVr6QUjKH0EO7bt09dvCxUVFSkFYwpswwGw7L9/tO9xfjTTz+dcptYTGJHdiEYjokoo6amprJ+Z7A33nhjWd4sghYmPz8fdrt9XrexzRatVgu73Z52aDcYDHj22WeXVXiorKxETU2NupgWWbo994thz549aS+TTqebV9vIpk2bNqV8hGc2DMdElFHp3gBhPsQdyzJpenoa09PT6mJaZPn5+dizZw9qamoWvIFbqMrKSjz77LPz3vhv2rQJdrsdFRUV6kmLKj8/H/v27UtpLCktDqvViueff37J67jYiZvvDqlOp8Ozzz6bdrDOBqvVCrvdnpHvlOGYiDJmtruczebs2bPyZNlURaPRWW8ckS6NRhN3pQBaWhUVFbDb7bBarRnZ2KXDYDDAbrdjz549KZ+0loxOp0NNTQ3sdntKVwHIpPz8fBnC5jqRkBafTqeDw+FYkh3BTZs24emnn85Yz6+oZ0uxI1hRUQGHwwGr1brg9iowHBNRxsw3rP7mN7+Z18lL8wnilDt0Oh2sVqsMENkMl1qtFlarFd/61reyEmRF4BYBIlthKD8/HwaDAfv27cPzzz+f0cBA2SHCnTjKkK3fKz8/X+50Pvvss2mNL06F2BF8/vnns95exdjtb33rW1nZueDVKlYQXq0ic3i1ivRFIhG89NJL6uKU/M3f/A2effbZuNtepypZkOHVKpZeulerSMXU1JS8YczVq1dx9erVee1YabVaGAwGbN68Gdu3b8/4xjUVV69elZ8lEonMaxx9fn4+Nm3ahE2bNsFgMMBgMGQ8XPFqFcmle7WKVMXeGGm+dVzsKMXWjcUWiURw6dIljIyMyPY6H9lur+qrVTAcryAMx5nDcJy+wcFBuN1udXFKFhKOKyoqEp5kxHC89LIRjhOJRqOIRCKYmppCNBqdESTy8/ORn5+PtWvXYvPmzVi7dm3GA2QmxC6/+ExqOuUaz5s2bUJ+CjclyQSG4+SyFY7VpqamZEi+devWnHVDq9UuyzoOZacwtq7P1V4Xo44zHK9gDMeZw3CcPrfbnfQmDnNZSDjWJrmeJcPx0luscEzZxXCc3GKFY8oudTjmmGMiyohsX6EimUQ9hURERPPFcExEGTHfsWSZkGown+1SbbNNQwrTiYhoZWA4JqKMmK33dkq5McjLL7+c8C8SieDs2bMzysXfb3/7W/VLxpntvWPNdqm22aYhhelERLQyMBwTUUbMdvJHfn4+nnjiCTz++OMJ//Lz81FeXj6jXPxt3rxZ/ZJERERZwXBMRBmxdu1adVGcRx55ZEbojQ3Hs01ft26d+uXizBbMiYiI0sFwTEQZsZS9u5m4wxMREREYjokoUxbjWpSJLMWF7YmIaOViOCaijNi+fbu6aFGw15iIiDKJ4ZiIMiIbt61NhcViURcRERHNG8MxEWVMZWWluiirDAbDkg3nICKilYnhmIgyprKycl5h9emnn57XraNramrURURERAvCcExEGZOfn489e/aoi+f0yCOPqIvmNN8gTkRENBuGYyLKqO3bt2d9eIVWq4XValUXExERLRjDMRFl3J49e1BRUaEuzgitVov9+/cvycl/RES08jEcE1FW1NTUZLwHWQRjDqcgIqJsYTgmoqzZs2dPxoY/VFZW4tlnn2UwJiKirGI4JqKsslqteP755+c9zMJgMMBut2PPnj0cSkFERFnHcExEWafT6VBTU4Pnn38elZWVc97VLj8/H5WVlbDb7bDb7bxFNBERLRqGYyJaNDqdDnv27MGzzz6Lb33rW7Db7aipqZF/+/btg8PhwLe+9S3s2bOHoZiIiBYdwzERLYn8/HwYDAZUVFTIv+3bt3NMMRERLSmGYyIiIiIiBcMxEREREZGC4ZiIiIiISMFwTERERESkYDgmIiIiIlIwHBMRERERKRiOiYiIiIgUDMdERERERArNtm3bpr///e/jmWeeUU+jHPPkk09iZGREXUzzMDw8rC6iHPPWW2/h2WefVRfTIrj25e/hnu5BmM1m5K1dq55MOWagvx8AoPtHh3rSfa+5uRlNTU3qYsoxX//61/H222/LxwzHKwjDceYwHOc+huOlc+3L38Ot8hp1MeUwze1JFP33P1AX3/cYjleGhOG4ubkZpaWlcTMuB9u2bcMDDzygLqYkvva1r+Hy5cvqYpqHn/3sZ7h586a6eMn88pe/xOTkpLp4Sa1ZswYWi0VdvGz09fXh4MGD6mJaBCIc//uyG6goWfqe49GxUUSjUXXxknvwwQexNm/pv5+5/NefrWE4TuI//af/hH//7/+9unjRXbt2DYODg+riJffggw/iwQcfVBcvOwcOHIDf75ePNdu2bZv+5je/ieLi4rgZl4PHH388J77U5eIb3/gGw3GGvPHGG8sqjL7++uvLankAoKCgAHv27FEXLxt+vx/f/e531cW0CEQ4fvahKL5ruauevOjee+89XLp0SV285Pbs2YOCggJ18bJy6cYq/PE5HcNxEn/2Z3+2LI68j42N4Wc/+5m6eMk9/PDDePjhh9XFy85f/MVfYGBgQD7mCXlERERERAqGYyIiIiIiBcMxEREREZGC4ZiIiIiISMFwTERERESkYDgmIiIiIlIwHBMRERERKRiOiYiIiIgUDMdERERERAqGYyIiIiIiBcMxEREREZGC4ZiIiIiISDGvcOz1etVFGBgYwOTkZFzZyMgILly4EFeWDU6nE0eOHMGRI0fgcrnUk7PiyJEjOH78OI4fP45IJKKePC+RSAShUEhdTMuc1+tFIBBQF+P48ePqIrhcrozVF2FgYABnzpzBD3/4Q5w5c0Y9edF1dXXJ9pHoe5mvTL4WLT+BQABut1tdDKfTqS6C2+3O+LrywoULce1IvT1bbIFAQLajRN/LfPl8PnURLaJE9dnn8834XSKRSMbzzOTkZFwdX4x8NpcXXngBx48fT/i9zFcoFFrwdnZ1YWFh6+/93u+hoKBAPS2pgYEBQFmAn//85yguLkY0GkVJSQkuX76MN954A5OTkygoKMCdO3cAAB6PB2NjYzAajapXS+6BBx6AVqtVF89gsVjwySefwGKxoKamBm63G6+++iqi0Sg2bdqEl19+GVevXkV+fj5OnDiBTz75BGazGV1dXXC73dDpdNi8eTOcTidef/11mM1m5Ofnq98mzquvvoq//Mu/hEajgd/vRygUwquvvgqz2YyXX35Zvs7rr7+O7du3IxAI4OrVq7h48SJeeuklbNq0CZs3b5bLYDQacebMGbz88svYs2cPXn/9dbz88svYvn07dDpd3Hw6nU69OIASSq5fv64upnn40z/9U1l35+Lz+bBu3Tq43W709/fj4sWLMJvNCIVCMJvNsl4ZjUaMjIzAYrHA6/XC5XJBo9HAYDCoX3KG3/zmN0mXZ8uWLSgpKcHo6Cj27duHkZER/OQnP0E0GoXRaITH48HPf/5zmEwm/OQnP5HtcGRkBG+88YZ87PV6MTAwgOLiYqxfv179NjPk5eWhtLRUXQy3241/+2//LWpqavDyyy8DAM6dO4dbt25hZGQELpcL0WgUn3zyCaLRqGx727dvx9/+7d/K7y0UCsHpdMoQdOTIEbn+EOVmsxmBQAAvv/wyotEotm/fLpfj448/xk9+8hP5mBbPrfIa3C3ZjscLb+HJrdPqyQldvHgRV69eRSgUgt/vh8vlwp49e3D16lVs3749bh04NTUFg8GAixcv4gc/+IFcpydz5coVRKNRdXGckpISlJeXY2RkBPv27UMkEonbbg0MDODnP/85ysvL4fF48P7778NoNM6Y78KFC/B6vSgoKEi6rhZKS0uRl5enLgaU7+Phhx/G/v378fLLL6OysjLhtkyn08Hn82H79u1wu93Yvn173LZsamoKf/u3f4vBwUFs374d3/72t5Gfnw+DwRC3rbp69WpcuxKitzX4h6F8aO7dQcHPTsUtIwGf/exnsWPHDnVxUi+//DIMBgPOnDkjtwuRSARGoxHRaFT+rtu3b8fVq1dlhunv78f27duTZpPJyUlcunRJXRwnLy8P5eXlGBgYwNe+9jWUlJTg7NmzuHDhAoqLi/Hhhx/iF7/4BaDKd+vXr5d1vri4GJOTkylnuuLiYhQXF6uLpddffx1/+Zd/iatXr2Jqakp+L+os9fLLL8ttZzQaRX9/P1599VWZiWLXD06nE263GzU1NTOyU7Kc97//9//G5cuX5eN59RwDwNjYGAoKCrB7924MDAxgZGQEN27cwMDAAPbt2wcoP9bo6Ci8Xi/27t2L4uJiGayzSafTweFwwO12IxqNIhKJyC/p8OHDcq/CaDTK+USv1P79++dciQJANBqF1+uF2+2G2WyGy+WSr2W1WrF//365ohEbeZ1OB5fLhcOHD8tp0WgUBw8eRCgUQk1NDZ5++mlEo1H4fD4cPnwYx48fRygUgs/ng8PhWPDeEGWPz+eD3W6Xv7nP54Pb7YbBYIDD4UAgEIDP55M9AgcPHoTb7c74b3rz5k18+ctflr0Co6Oj+NrXvgaPxxPXDjUaDWw2m5xPtN2bN2+qXjF9sb2AoVAIBoMBFRUVOHfuHA4ePAifzwej0Qi30gMoVloOh0OWHz9+HAcPHoROp4PBYIDVaoXVap0xn8vlwv79++cMIpQbAoEAqqqqYLVa5bpZtCmxrhTrTqfTKdfpmT6yoNFosHfvXkxOTmJkZES2D6/Xi507d2L37t04f/48bt68ib1792J0dFRu72w2W0o7mHMR7SgQCMRty44fPx63LRNtzefzoaurCzU1NXIbdOLECezfvx9WqxWhUAgVFRWw2+1wOp1x83V1dWH//v2z7mRQZkQiEUQiETgcjricIH5XnU4n6/SJEydQU1ODmpoaODPYuwolo+3cuRM7d+6E1+vFyMgInnjiCRQXF8vOFo/HM2M+0QbmCsapEFnK5/PJHb2DBw/OqJ/iOxPzifWB0+mE1+uFRqOR29mnn34a+/fvl+1GzBcIBBCJRFLKefMOx4LYi4DyRQs7d+6U/xe9yAUFBRgZGZHl2SI2mCGlx0n0zA0ODsLlcsFoNCIUCqGrqwvnzp1DSNlTFnsfqYYVjUYDu90Os9kMrVYrfzCDwQCDwYBQKAS73Y6urq643kGXy4WqqiqMjIzIcqvVKqdHIhFUVFQAyrIbDAbZMMRnouVH1IHY3zoSici6VVNTAygrA7EBSuXISLpGRkbg8/lkexRHhSYnJzEwMBDXExY73759+/DjH/84I4faotEoDAYDDh48CCg7rKIMMW1StEOr1YpoNBrXHsU8NTU1M4KvTqeDVqtFKBSCw+FAV1dXxsMRLR2DwQCtVivXxaIdQbWuFPVC1J9MGhgYgNfrxejoKCYnJ2XvlxgueOHCBdkL5/V649qRx+PB22+/rXrF+dHpdDh58iQQ025iP7fY5ohQPDg4KA/TV1VVyeeZzeb4HmGlPRoMBkSjUezfvx9utxsnTpxIeRtI82cwGOR6LLYMCdZ5sb9TJt24cQNvv/12XK4oKCjA5OQkxsbG4PV6UV5ejtHRUZw/f17Ot3fvXoRCoYwMP4pEItBoNDhw4IBs90hQP0UGEjuJoVAILpdLtgGr1Rq3nRWvLb5TsQ4xGo0p5bwFh+NY4kv1er34wQ9+IMtF1/27776L3bt3xz0nGyKRSMLQYbVaEYlEEAgEZMWLRCKIRqMIBAJyLyOVCqjVamG1WmfsZdfU1ODEiRM4fvw4qqqqoNPpZE+I+JGmp6cRCARkj3NXVxdOnDgBrVYLn88Hg8GAc+fOoaurCzqdTi4zlApDuUM06OPHj8vxYwaDAYFAAF1dXdBoNDOC30JduHBBtsVYJSUlGBsbw9jYGKCsGMV8k5OT6O/vR0lJSdxz5itR24j93IFAAAaDAfv374/boRwZGZE70OLw2KFDh+TKUPTEi3GY4vsVr00rk8FgkOvK2N4zg8EAp9OJl156KS40Z0LsTmUs0bExNjaGyclJrFu3DgUFBbJdnT9/HiUlJRnpOTabzXKjHyv2c5vNZjgcDvkd2O12BAIBjIyMIBKJwGq1yrHLoq25XC7U1NTIcqvVKttPom0nLQ6xznvhhRdkWezvZLfb4+ZfKFGH1XVcbCti51m/fr2c78KFC5hUOj0XyqAcFVTXcXX9NCtD6Ox2OwxK5+P09DRCylF3p9Mp/3TKkUij0SjXG1VVVWnlPM22bdumv/nNb846JiRdo6OjMzay4ktN58t8/PHH8eCDD6qL5yT2CNRftnqaej714/lSv4fT6ZQ9aIg5zJzocSQSke+vLsccy/aNb3wjbswMzZ8YN58p6t88WVkyr7/+elrLk6gNIkE7VM+nfjybgoIC7NmzR108p9jPLXYAxd6+up4nepyo7Sb6Lv1+P7773e/GldHiuPbl7+FWeQ2efSiK71ruqifPW6LfOVGZ2nvvvTfneMxEkrWHTLWjPXv2pLVNjBW7rQgEAhgcHJThSd0+1I/Fd5aoXBwBEy7dWIU/PqeD5vYkiv77H8hy+p0/+7M/wzPPPKMunjf1b5KsTG1sbAw/+9nP1MVzUtflWLH1WD2f+nEyDz/8MB5++GF1cUrUWerIkSM4evSonK5u++rMpK7vohwJvsu/+Iu/iBv2m9GeYyHRSqFAGVaxGHQ63YwPLsROU8+nfjxfsa8j9mpiqVfksY9j319dnollo6Wh/s2TlWVKojaIBO1QPZ/6cTaoV16x7UNdzxM9TlSeze+Slo9Ev3OiskxJ1h6WQzuKrf+Dg4N4+umn46ap202i9pKonNuZpaX+TZKVZYq6LseKrcfq+dSPsyH2cw8ODsZ1MiJB21dnpmTlqXyXWQnH9K/U47yI6Hd0qmBMRPNjt9tT2uAT5Sqr1TojDGcTwzERERERkYLhmIiIiIhIwXBMRERERKRgOCYiIiIiUjAcExEREREpGI6JiIiIiBQMx0RERERECoZjIiIiIiIFwzERERERkYLhmIiIiIhIwXBMRERERKTQbNu2bTo/Px/r1q1TT1tyq1evRl5enrqYkrh8+bK6iObpU5/6FO7du6cuXjI3b95UFy0Ly3G9EYttYmlc+/L3cKu8BmsmR9WTlsY0MI1pdemS02g06qJl6U5BCTS3J1H03/9APem+p9PpUFBQoC5eEstxO5ErOe7atWu4fv26fKzZtm3b8ltjEBFRzhLhmFYOhmO6nzAcExFRRt15cJe6iFaANZf61EVEKxLDMRERERGRgifkEREREREpGI6JiIiIiBQMx0RERERECoZjIiIiIiIFwzERERERkYLhmIiIiIhIwXBMRERERKRgOCYiIiIiUjAcExEREREpGI6JiIiIiBQMx0RERERECoZjIiIiIiIFwzERERERkYLhmIiIiIhIwXBMRERERKRgOCYiIiIiUjAcExEREREpGI6JiIiIiBQMx0RERERECoZjIiIiIiIFwzERERERkYLhmIiIiIhIwXBMRERERKRgOCYiIiIiUjAcExEREREpGI6JiIiIiBQMx0RERERECoZjIiIiIiIFwzERERERkYLhmIiIiIhIwXBMRERERKRgOCYiIiIiUjAcExERZcCqVauQl5eH1atXqycRUQ7RbNu2bVpdSIlt3LgRX/3qV7F69WpMT09j9erVGBgYQH9/v3rWRaHRaFBcXIw7d+7g2rVruHv3rnoWojlt2LABX/3qVzEwMIBAIKCeTLNYt24dCgsLEQ6HMTU1pZ5MOUy9vgeA0dFRvPbaa7h9+7acLy8vD6WlpVi7di2uXLmCiooKXLlyBUNDQ3jggQcwNjaGycnJmFfOXRqNBoWFhdBoNIhGo7hz5456FqIVYXVhYWGrupASW7t2LR566CGcPXsWP//5z3HhwgXs2rUL165dQzQaVc+edWvWrIHZbEZ+fj5XVDRvpaWl2LJlC9atW4fh4WHcu3dPPQsloNFoUFRUBLPZjPHx8RUTgOh31Ov7d999F7/+9a9ntI/Vq1dDr9dj9erVGBkZwfDwMEZHR7FmzRp8/vOfRzgcxrVr1+Kek6tWr16Nhx9+GHq9HpFIJG4ngWglYc9xGjZu3Iinn34a586dkyu73bt34+rVq7h+/To+85nPYO3atbh27RrOnz+P7du3o7KyEnl5ebhx4wZ6e3sBAGVlZZiYmMCHH36IoqIiPPLII7h27RqGh4fx2GOPoby8HNPT0/j444/h9Xpx48YNPPzww9i5cyfWr1+PyclJvPXWWygpKcGOHTuwbt06DA0NYWBgADqdDjt37oRer8fU1BR+8Ytf4De/+Q3Wrl2Lz3/+89i6dSvu3r2LwcFBDAwMzFjR0/1l1apV+MIXvoAPP/wQjz76KPr6+vDJJ58AAAwGA5544gkUFxcjHA7j5s2bCAaDuH79Op544glotVrcvHkTb775JkpKSrBz505s3LgRN2/ehM/nw6VLl2R9NBqNuHbtGiYmJjA+Po5AIIDt27fDbDZj/fr1uH79On7xi19gfHwc27dvR2lpKaanp/Hhhx/iV7/6Fe7evYu1a9di27ZtePjhh5Gfn4+NGzdidHQU77zzDm7fvo2Kigo8+OCDuHv3Lt5//31cu3YNjz32GD71qU/hzp07uHDhAt5//32Ul5dj48aN+PnPf47bt29jx44d2LRpE95++20YDIa4z+H1evHRRx9Bq9Xi8ccfx7Zt23D37l0Eg0EMDQ3BYrHgwQcfRCQSwcDAAC5dupS0DVNuSbS+FzZt2oSdO3fiU5/6FKLRKKLRKK5cuYJLly6hvLwcV69exUMPPYSysjLcuXMH7777Ln75y1+iqqoKZWVluHfvHsLhMF577TVs2LABTzzxhFxnv/POOxgdHcX09DR0Oh3Ky8uxefNmbNiwAWvXrsUHH3yAwcFBbNiwAbt27cKGDRswOTmJN954A1u2bMETTzwhy7xeL6LRKB555BFMTU3hl7/8JTZs2IBPf/rTmJ6exnvvvYcdO3bgscceAwCMj4/j9ddfx7Vr1/DQQw/JbcnNmzfxi1/8Anl5eXjssceg1WoRCoUwMDCA1atX44knnsADDzyAW7du4f3338eFCxdw69atuO+MKJew5zgNa9euxfbt2zE0NIRbt24hPz8fTzzxBH7zm98ASug9d+4c3n//fRQVFeGxxx7D+fPn5Ua4oqICv/3tb5GXl4fCwkKMjY1Br9ejsLAQoVAIxcXFKCwsxE9+8hP86le/wvr167Fp0yZMTU3BbDbjZz/7GXw+H27cuIHNmzdjaGgIq1evxtDQEN5//32sXr0a5eXl+PWvf42f/vSnCIfDeOihh3D79m1s3LgRGzduxNmzZ3HhwgUZ2DkU4/5WWFiIsrIyvPvuuygoKEBJSQkuXbqEjRs3orS0FB999BHeeOMNRCIRFBcX48aNG5iamsK2bdvwzjvvoL+/H+vWrUN5eTn6+/tlEDQajbh58yY2b96M6elpnD9/HqFQCHq9HqtWrcL4+Djy8/MxODiId955B6tWrcK6detw69YtFBUV4fr163jrrbfw8ccfy0Paq1evxqZNm6DT6fDTn/4UAwMDAIBt27ZhfHwcDzzwAC5fvox33nkHN27cQGlpKa5fv47/83/+D0KhEDZt2oT8/Hx89NFH2L59Oy5fvoy7d+9ix44dGBoaAgCUl5fD7/fLdmY0GjE5OYktW7Zg1apVOH/+PILBINavXw8A+M1vfoO8vDz4fD5cuXIFDz74IIqLi+F2u/HBBx+goKAADz74ID766CP5OSg3rF27Fo8++iju3bsHvV6PkpISOe2hhx7C5OQkPB4PLl++DL1ej3v37mFiYgIlJSW4ceMGBgcHsXnzZrz11lv48MMPsWHDBuTn58Pj8WBgYAAPPvggpqencevWLTz00EN499134ff7cf36dfk++fn52LZtG8bGxvDWW2/h4sWL2Lp1K1atWoU7d+5g27ZtePvtt/Huu+9i/fr1+PSnP42+vj54vV5cv34d27dvx+joKO7cuYMtW7bgypUr2LBhAx588EEMDQ1Bq9WitLQU//Iv/4L33nsPa9euhdFoRCQSwac//Wl8+OGHcltSXFyMjz/+GLdu3cLly5fx7rvv4vbt29i+fTs++eQTvP7667hy5Qq2bt0KjUaDiYkJ+TmIcg1PyEtTQUEBamtr8e/+3b/Dn/zJn+CTTz7B5cuXAQA3btyQh1ZLSkowOjqKGzduYHp6Gh999BHWrl2LNWvW4Pr161i1ahWKi4uxceNG3Lp1Czdv3kRhYSHy8vJQVlaGsrIybNiwARs3bsTmzZsxMTGBa9eu4d69ewgGg+jr65txGFen0+HmzZuIRCK4e/cuRkdHce/ePeTn5+P27dvYvHkznnrqKZSUlGB4eJhjJAnbtm3D9evXsWbNGoyNjWHLli3Iz8/Hhg0bMD09LceyT0xMIBwOy6E7N2/elHVbBN4tW7bgkUceQVFREbRaLbRaLfLz8zExMYHbt29jcnISo6Ojsr5funQJGzZswGc+8xk88sgjKCgoAADcuXMHN27cSHjI9s6dO4hEIrh27Rpu376NiYkJrFq1CuvXr5fvcefOHfla4XAYt2/fRjQaxY0bN7B+/XpMTU3h5s2bKC4uRlFREVavXo2xsTEUFhYm/ByFhYVYu3YtxsbGcOvWLUQiEbz33nsIBoNxy7ZmzRps2LABo6OjmJqawq1btzA6OoqCggKsXbs2bl7KXevWrcOaNWsQiURw584dXL9+HWNjYwnra6xoNIpgMIjt27fjqaeekiEXSnuanJxMeCTv5s2bmJiYwNTUFK5du4YbN25g3bp1yMvLm9EOo9Go3E5cuXIFq1atwtq1a3H9+nVMT0+jpKQEWq1WtqPi4mIAgMlkwiOPPIINGzZAq9XKgC+2JaFQCH6/H+FwOG7ZNm7cKHcK7ty5I5ezoKAAa9asiZuXKJcwHKdpcnISPT09+Pu//3v88Ic/hNfrTav3VQSOqakpmEwmrFu3DmNjYzPGC9+5cwdXrlzBhQsXEq4w0zE9PY1PPvkEr776KkKhEHbs2IEvfvGLMkDQ/WnNmjXYtm0bDAYD/s2/+Td46qmnUFRUhM2bN6tnxapVq7Bq1SpoNBr1pBmuX7+ODz74ANFoNK63VKPRyNcoKSnBU089hdLSUly6dAkffvhhXI9ZNt27dw8jIyMwGo146KGHcPXqVUxNTc3o2U32Oej+cefOHQwNDeFXv/oVfvWrX2F0dFQ9S8oeeugh7Nu3D+vWrcP7778/Y+cqmyYnJxEOh1FWVobCwkJcvXp1xjbn3r17GBsbw/vvv7/gbQ5RrmM4zpLR0VHo9XqsW7cOGo0Gn/rUp3Dr1i1MTk7ixo0buH79OjZt2oSCggJ52Ev0sA0NDWFoaAjXr1+XPVYbN25EQUEBNBoNTCYTPve5z6GgoAB3796VG+5IJCJ7/VatWoWSkhKsWrUKt27dwgMPPACj0YiLFy/C6/Xizp072Lhxo3qx6T6yadMm3Lt3D6+88gr+/u//Hn//93+Pd955R46Bz8vLw6ZNm7Bu3TqUlJSguLhY9nTFCofDuHfvHi5fvowPP/wQV65cgUajwe3bt3Hnzh088MADskdq69atsod1YmICg4OD+Pjjj5Gfn4/8/Hz1S8+wZs0a6HQ6bNiwQQ5PunfvHm6oxvSKXjitVos1a9ZAq9Vi/fr1skf68uXLWL9+PYxGoxxeof4cn3zyCTQajewFLiwslO//xBNP4OGHH8a9e/dw9+5daDQa2Yuo1+uRl5eHtWvXoqSkBJOTkxx/uYKI31Kv18u6XFxcjLy8vLj5RN0Q9Ho9hoeH8d5772FiYkL22s5l3bp10Ol0WLt2LTZu3Ij169fj5s2bM3qqw+EwNmzYgPXr10Oj0eCBBx7AvXv3MDk5iampKTk0Qq/X48qVKzIMA0AwGMSHH36ISCSCtWvXIhwOIz8/H+vXr8eqVatgMBjwmc98Bnq9Pm6bc+3aNWg0Gmi1WqxevRqFhYXIz8+XR3CIchXHHKdBPeY4ltjwDw0N4e7du5icnMT69evx1FNPYefOnSgpKYHP55OHvNauXQu9Xo+JiQmMjIzg7t27uH37NrZu3YqnnnoKO3bsQFFREYLBIMbGxpCfnw+r1Ypdu3Zh8+bNeP/99zE+Pi6vWFFUVCRXeJWVlfjsZz+LT33qU/j1r3+Njz76CGvWrMHnPvc5PPHEE9i+fTuuXr2KDz/8kD1i97EnnngC4+PjCIVCsuzOnTsoLy/H0NAQotEoysrK8LnPfQ55eXmYmpqSZ6g/8MADuHTpkhyikJ+fj8985jPYtWsXHnnkEVy5cgVXrlzBtWvXUFJSgs9//vMoKSlBNBrF1NQULl26BIPBgMceewxmsxkbN25EJBJBNBqFVqvFvXv3cPXq1bj6Ka4K8OCDD2L79u3YuXMnCgoK8N577+HWrVvYtGkTbt68iXA4jFu3bkGj0eCRRx5BVVUVTCYTRkdH8etf/xp37tyRn2H16tX44IMPcPv2bdy8eRNr167FZz/72Rmf486dOygtLcXnP/95PPzww7h+/TouXLiAu3fvori4GI8//jgmJyflmMunnnoKjz76KACgr69vxvqClr+1a9fK+vnEE0/giSeewIMPPogPP/wQd+7cwcMPP4zdu3djy5YtuHfvnjwxTwxJGBsbw1rlRGhxtKKyshIVFRUwm81y6NvNmzfxwAMP4JNPPpmxk5efn49NmzbhwQcfxI4dO/DpT38ao6OjCAaDWL16NbZu3YqRkRHZ8ZKfn4/Pfe5z2LVrF7Zs2YJ3330Xo6OjuHv3ruwwmZycxMWLFzE9PY2bN29Cr9fjD/7gD/D444/jwQcfxK9//WuMjY0hLy8PFosFn/nMZ7B161ZcvHhR7vg+/PDD2Lp1K8bGxjA1NYWKigpYrVZs27YNly5dwvDwMMMx5TRerSLLVq9ejTVr1uDWrVtxG/rNmzfLQ8qXLl2a8ZzVq1fP2KCuWrUKa9aswe3bt2cNtWK+O3fuxB0e02g0yMvLw927d9MaCkL3p7Vr1+LevXvyKMOjjz6KiYkJBIPBhPVHo9Fg7dq1uH37tqx3a9askUcv8vPzUVZWhoKCArz77ru4c+cO1q5di+npady5c2fWOg1leUpLS1FSUoK+vj5MT0/P2RY0Gg3WrFkj3yOW1WrFtWvX8Ktf/SpuWqLPIcpXKzd3UL9WLDGf6D2nlWnVqlVYvXr1jB7iuaxbtw63b99O6Tk6nQ4VFRW4evUqLl26hDt37sxa9zDLdkKn08FsNuPjjz/G8PDwjOeIHWB1eaJtidp8vwui5YrheJGtWbMGRqMRjz76KK5evSrP+CVaTvLz8/HYY49h8+bNGBsbk72577//Pq5cuaKePaE1a9bAZDLh0Ucfxfj4uDz8+sEHH8xrvGVsOP7Zz342Z0hIRpwEuHHjRnnZqtkCNtFSiQ3HwWBw1oCazOrVq/HAAw/g8ccfx40bN+Dz+bjNIZoDw/EiE723ojdtPis7osWwatUqaLVa6PV6TE5OYnx8PO2NqkajQUFBAYqLizE9PS1PfpsP0SMr2s58rVIuGzc1NcVeLlrWRM+tOIIzH+LoyZo1azA1NcVtDlEKGI6JiIiIiBQzTz0nIiIiIrpPMRwTERERESkYjomIiIiIFAzHREREREQKhmMiIiIiIgWvVpGGDRs28JbLOW7VqlX46KOP1MX3pS1btqiLKMdMTk4iEomoiykD2D5yH9f3NF8Mx2n4zne+gy9+8YvqYsohOp0OX/va1zAyMqKedF/ZsmULfvjDH6qLKcf8/Oc/x6FDh9TFlAE//OEPGZBz3J07d/DlL39ZXUw0Jw6rWCQjIyPw+Xxwu93w+Xxx/w8EAurZiZa1QCCQsD57vV72ZNJ9b2RkJK5txLaRUCiknp2Ilhn2HKch3Z7jSCSCwcFBRCIRGAwGmM1m9SwAgFAohFAoNOd8tHDsOf6d+fQcBwIBhEIheUtbnU6nngUA4PP5EIlEoNPpYDAYYDAY1LNQhrDnOHvS7Tn2er2IRqMAALPZnLTei3aEOeajhWPPMc0Xw3EaUg3HkUgEPp8POp0OVqtVPXlWoVAIXq8XVVVVXGlmAcPx76QTjgOBAAYHB/H0008nDcTJ+Hw+jIyMYP/+/epJlAEMx9mTajgWYddqtabdPkTHCHcis4PhmOaLwyoyzOfzYXBwEDU1NWkHYwAwGAwySHR1daknEy2aSCQCt9sNg8EAu92e9oYfAKxWK/bv3w+Xy8XDybTieL1eAEBNTc282ofBYIDVakUoFILP51NPJqIlwnCcQV1dXXJlt1AiJHMMJy2FUCiEc+fOzXujr2a32wGll41oJfD5fDCbzRkZBme1WmEwGNghQrRMMBxnSFdXV1aGQlRVVcHtdquLibJG9GKJQJspBoMBOp2OAZlyns/nm9cwitkYDAZUVVUxIBMtAwzHGeDz+bISjIX9+/czINOiCQQCGQ/GgmgjHGJBucrtdmfk6GAiIiBziAXR0mI4XiCxkc9WMBbMZjN73Cjrurq6UFNToy7OKNZlylViKEU2GQwGaLVa7kASLSGG4wUSZylnm8FgYKCgrAqFQqiqqlIXZ4XVauXREMo54nKb2WY2m+XJfkS0+BiOF0Bcgmex1NTUMFBQ1gQCgUWrzzqdjieaUk7x+XxZP6oSy2g0sveYaInwOsdpUF/n2O12L+rKEjEngsxHKBSSJ3tUVVXFvU4kEoHT6YyZ+3f2798vA5Pb7Z7Rey2uqpEreJ3j30l0neOF1K35iEQiCIVC8z5M3dXVJcPDwYMH46alUlePHz8eNx2q+p4LeJ3j7FFf57irq2vR13ULaZOxbcDhcMSdPBgIBGZ0tIjxzqL+O53OGTuwZrN50bd5C8HrHNN8MRynQR2Oxc065jIyMgKj0aguBpSAkOiM52TlPp9v1ruTzebQoUNwuVyAclj79OnTclooFMIXvvCFmLn/1dGjR2G32+OeH8tgMKC7u3tey7TYGI5/Rx2OU63LYmOZ6LdOVmcxy7T5bvzV9fX06dNxr5OsrprNZrz00kvQ6XT49Kc/rZ4MADh8+DAcDoe6eFliOM6e2HAcUm7WkUpdTVbXZ2s7ybYRC+mA+cIXviB3Hg8cOBC3A9nV1YUXX3wxZu7fMRgMOH36NAwGQ9zzYzkcDhw+fFhdvCwxHNN8cVjFPEUiEWg0Gvn4ueeei5sOZe/8C1/4Ar73ve/hueeei+vJcjqdeOGFF/Diiy+irq5OroRCoRBeeOEFHDlyBM8999yM3i2r1TrvM5lFT4FWq4VPucWvmsFgwGuvvYbu7m65Mj1y5EjcPA6HQ85jMBgQCoUS9jpT7hC3vYUSlNX1Dko9EHX20KFDsv7MVmdj6/lzzz03Y2ObqA6mQozH1Gq1QEzdVjt8+DBee+01ucEPBAIzQvNrr72G1157Tdb3EydOzHu5aGUaGRmJC8aJ1vexdf2FF16Iq+uHDh3CCy+8INuJEAgEUFdXhxMnTuC5556bUY8NBsO86qLX60UoFJLtI9k2o6amRq7LrcrNSNTr+5MnT+K1117DyZMnodVq4XQ6k74e0UrBcDxPgUAAFRUV6uI4R44cQXd3N06ePImTJ0/ixRdfRCQSgdfrRSAQkOWHDx+WvT/Hjx/HgQMHcPToUZw+fRrRaDQjKyK3241oNAqr1Sp7ItQhQTAYDDCbzXj++eeBmMPfglarlfOIHjZ16KGVRdzg5vTp0zh58iSqqqrkDtGhQ4dw+PBhWWcHBwfh8/kQUq6XLOr50aNHZ2x45+ull14ClKMamKUui7pqtVqT3ojEoNy698CBAzKMsD5TrNidx0QCgcCMdbqo606nE2azGadPn8bp06eh1WrlDuSRI0dk2zh58uSMoQyi8yFdoj0cPHhQdoYk2o4kWper24dOp4PBYEBNTY3cdqjnIVppGI7nKRqNJjw8Jni9XlhjLhKv0+lgt9vh8/lw7ty5uLFrsUMcQqoxmA6HIyMXhRc9Evv375fvre6lUIvdIBiSjMMUK8nZvgta/kQPUzIulytuqIGoy0Js/Th58qS8GkXs9ZINCS5RZTab0974h0IhBJSTB8Vt2iORSMKNfyzxPsnqakg5dI5Z5iFKxO12x63TxU5WRLkFe2zbOXjwIA4ePAiv1wuz2Szbjk6nm3HStU6nS7t9IKan2Krcvh0xR1uSEe+TbF2PmNedbR6ilYDheJ7mOtQVCoWSbmAjMZcDcrvd8pBbtkQikbixxhUVFUmHVkSjURw6dAiHDh1CbW0toAT0WOfOncOhQ4fw3HPPyddVz0O5ZT4bYCQYXynqstvtnjEtU0R4EIe5xb+JdvZcLtecdVVd32tqarjxpzhz9RxHo9EZO5harRbRaDTuuU6nE4cOHZI9x4meo5aobDZiSIXoEZ7tSKHP55PtQ/R0q086PH78OA4dOiSH/4nXJVrJGI7naa6NfqK7HAUCAZjNZpjNZrkhr6mpwdGjR+NCauz/E50ole7KUryXTqebEcTVK0wRpF0uF3Q6HQ4ePDjj5AsxbjMQCMheb4aJ3DbX72cwGOLqs9j506luB3306FEZVquqqmb0Vg0ODsa918jISNr1WQznGBwcxHPPPYdz584BSl1W7+z5fL4566q6vn/ve9+Lm06krjNq6vYBJTAbDAZUVFTINuJwOOBwOBCNRmE2m2c8x+fzzTgxL/bcllTErtNjzwEIKcOcYoVCIbhcLvh8PhgMBhw+fHjG3TFFGxLjrhO1IaKVhuF4nhIdDvZ6vfLPoIxjPH78uDzBSaeM3bLb7XC5XOjq6oLX68WRI0fk3rrD4cCLL74Ir9cLt9sNl8sVdyLIfIhwLA5pxy63urfNYDDggw8+wAcffIDXXnsNBw4ciJsO5cznDz74AD/72c9mXCWAcpN6AxwKhWRdDoVCOHjwoKzL4miH2GlyOBx44YUX5DS3cntdq3LyaGw9T3Tm/Vw7mrECgQBCyolGYmxwJBKRjwcHB+Pm/973vjdnXVXX93SWh+4P09PxF3WKRqOyfQSU262Ldbrb7Y6r6+p1+pEjR+BQLq1WVVU1YxsRW0dF3U6HeidWtBckWN/b7fa4+q8+qgLlSjCxbYjBmO4HDMfzZFCdKHHw4EFcunRJ/kE5U95oNMKn3HJUhAmdToeTJ09Co9HAp1xYXuyt19TU4PDhw/ApJzSdPHkybmUUUV0lYy6hUEj2rJ0+fVqemf/aa6/JoRXqkE/3n9geV7PZjKqqKlmXxTCgo0ePYnBwEKFQCEePHpX10uFw4MCBA3F1VgTM06dPx9Vz9c7WXIer1USvmDjLXvyJjXomxucTqelUN61xOByyfYSUoygvvfQSNBoNAoEAampqZJ00m804efKkbB+xbefAgQOyBzl2GyGIo42pEjuzBuWqQ+Lvr//6r4EERwqJKDGG4wWIXVlalbPhxZ9gt9tx8ODBGT1mogf54MGDM3qzDAYDDh48KHsXYg0ODs6YfzZe5bC21WqNC9k6nU6udBkoyBBzySidcvKo+BP1xGAwyMPC6t4js9mctM4mq+dYwBAhdXsSj8+dOzdjaAXRQqmHQMS2D1H3RLtJVNdj1+nqtlNTU5NwG4EF7jzGslqt8uiKemgFEc3Em4CkQX0TEHHGvDoMZJM7zYvCRyIRebKIejnV00QPsnrlLajnz0U63gQESHATECzghhzzNVd9S2S254hpInDPVVdne61cwZuAZI/6DnnprnszId02GdsG1PU+dv2NNNrHbPMsd7wJCM0Xe44XwGw2yyELiyE0j1vt6pRxzolWbuppBmWcdDLq+WlliSiXnlos4vBvOmaro2KaTjlRcK66OttrEampe4+zLd1gDFUbUIttE+m0j9nmIVqpGI4XSByqWgzzCRNEqaqpqVm0jT/rMuUawzzvVjcfoteWiJYGw/ECLVagcLvdDBOUdWazeVHufuVTLh1FlEusys1tsi0UCqXda0xEmcNwnAFWqzWrJ7WJM5YZJijbDMpVWLLZc+Xz+eJOWiXKFTrlROZstg9xq3YiWjoMxxmgU65XmY0ehUAgIC8mT7QYxNGQbAQAt9uNiooKdTFRzjAYDAgEAlk5wuJVbvrE9T3R0mI4zhCDckvNTPYge71e6FQXhSdaDHa7Xd5wIxMikYi8OQhP8KFcV1NTA51Ol9EhdW63G0ajkcGYaBlgOM4gg8GA/fv3w+VyLShURJRbOHNFSUtJXLZqoTt8gUBA3gSEwZhWCoNyNYeFHmXxer3yyhRc3xMtDwzHWSDGU/p8PnkTjlSI24uGQiHY7XauKGnJiR0+n8+XVggQPcXixLvFvj4s0WIwGAywWq0IhUJwuVxpDbUIBAKyt5hHVIiWF94EJA3qm4CkIhKJYHBwEJFIRK78pqd/95WLux/plFuTcgWZfTreBARIchOQVAQCAXkzAZ1OJ+syVHfzEsOMKLt4E5DsUd8EJBXiZFaxvk/UPrRaLaLRKNf3i4A3AaH5YjhOw3zCMS0vDMe/M99wTMsLw3H2zCcc0/LCcEzzxXCchhdffBFf+cpX1MWUQzZu3IivfvWrDMdbtuDHP/6xuphyzE9/+lP8l//yX9TFlAGvvPIKPvWpT6mLKYdMTk7iD//wD9XFRHNiOE7D97//fTzzzDPqYsoxTz755H0fjo1GI9588011MeWYV155Bd/5znfUxZQBb775JoxGo7qYcsjIyAiefPJJdTHRnHhCHhERERGRguGYiIiIiEjBcExEREREpGA4JiIiIiJSMBwTERERESkYjomIiIiIFAzHREREREQKhmMiIiIiIgXDMRERERGRguGYiIiIiEjBcExEREREpGA4JiIiIiJSMBwTERERESkYjomIiIiIFAzHRJSyYDCIcDisLiaiefL7/Whra2O7IlpGGI6JaE5tbW0oKipCWVmZ/NfpdKpnozkEg0F0dnbC4/GoJ1EO8ng80Gg0Cf+S/cadnZ3QaDRoaGgAALS2tqK1tVXO7/F40NnZiWAwqHrm/YXfAy0lhmMimlVzczNaW1sBADabDTabDcFgEPX19eju7lbPTrMIBoNoaGhAW1ubehLlONE2xJ9er1fPklB7ezva29tRV1cHAHA6nWhoaEBvb6961vsKvwdaSgzHy0wwGITH44n74+E2WirBYBDt7e0AgL6+Ppw/fx7nz5/HqVOnAKVHGQC6u7vR0NAAj8eDtrY2NDc3AwDC4TDa2trQ0NCApqamGb1pwWAQTU1NcnpsL5Eo9/v9aGhomNFT3dvbK8s9Hk/C12hoaEBDQ4MMpSLMezyehO8b+5qC+GwdHR2A8pk6OjqSfib1Zxbv6ff75WuIzyTadjAYjHsOe8tyi8lkkm1D/FksFkBVH9R1GEoI9Pv9M44qdHZ2yvoiHov67HQ6Zd2JbR9iHvU2Q7y/GMKhXpbYei/qtiAeq58j2k/se8W+D1TtrK2tbUa9TtYOZ/seRFtXfw9EmaTZtm3btLqQEvv+97+PZ555Rl2cUW1tbbKXLlZTUxOOHTumLl4WgsEgnE4nTCYTHA6HevKy8+STT2JkZERdfF8xGo1488031cUziPpYX18vA7HQ2dkJAKivr5fzWSwW+P1+mEwm9PX1YdeuXQgGgzCZTAiHwwiHw2hvb0djYyOCwSB27dqFcDgsnwcA58+fh81mQ1lZmXxuUOmpjl0GEQRsNhs8Hg/0ej3C4bB8b71eD41GAyjhJRgMorW1FZWVlbDb7XHler0e58+fh16vR1lZGUwmE4aGhuTnE8HD4XDELVeiz7R37175mmLD3d7ejurqauzduxfhcBh6vV6+JwD5HLE84vPN1Z5eeeUVfOc731EXUwa8+eabMBqN6uI4Ho8He/fujasvaqL+AJC/e2x93rt3LzweD86fP4+enh50dnbKOmKz2eByudDc3Iz29va451ssFvT19cllEO0AAIaGhmAymeQyiPeIrbOI2a6IthRbZ6enp2G329Hd3S17wcPhsFxusUyxdb+srAx6vR7j4+Po7u6G3W6PW+bYttnR0YGmpib5vcS23ba2toTfg1jPxC5P7GuqjYyM4Mknn1QXE82JPcfLlM1mk2PR9Ho92tvbE/Y6LAcidIiwRCuHCGqxG1qhvr4e9fX1cWXhcFj2MHd3dyOo9AwPDQ3JDZjY+QsGg3A4HHC5XOjr65M91Op6Xl1djfHx8aQ7h8FgEENDQxgfH5dDPmJ7mgCgtrYW4+PjaGxslL3aLpcLQ0NDaGpqQjgcRnNzM0wmk3wN8dnFYd3q6mo5BjLRZworPcoi+IyPj8vAJHYcXC4XAMBiscgA09raimAwiJaWFgwNDcnALIIDLX/BYHDGmGMo4dnpdEKv18s6mqgtCceOHZPDK9rb22V90ev1qK+vx9DQkKw3ordZEAF7tvew2WwYHx9HX18foLyHCMNQ3ke8Rk9PD7q7u2XwF+8renVra2sB5cgKlPcHIJdftLO+vj4MDQ3h1KlTcW0z9ojU+Pi47Dl2Op0JvwexnYl9Tl1dXcL2TrRQDMfLlM1mQ0tLC1paWuQKQayEysrK5AlRZWVlsryjowO7du1CWVkZ9u7dK8s7OztRVlYmV1axZeKwuN/vx969e1FWVoZdu3bJciHZdHGIS/xf9KqJx7HPUYeetrY2+VkSTafcU19fD4vFApPJJH9PUQ9EPQmHwwgGg7DZbKirq5N1KNEREyghUfQ+JSLeD4DsaRW90IJ4DfHeer1ebnwbGxvjnmOz2QAAPT098Hg8CAaDqKurg8lkigsC6s8UDofla4jlEMFChJFERPgWy2Oz2WQPX2z4oeVLhNfYP8TsXIrfFDF1Ix2NjY2wWCxobm6WRxnUUhnrLN7bYrHIYR+xbcViscjXEGG3vr5etj9RR3t7e+V8fr8f4XBYzu9wOBBUdi71ej0aGhqwd+/euCFFol2ZTCa5HGLnMNn309/fD6i+SxHQ1e2daKEYjnOI2MMXK57YMNHW1ib3vMUharvdDo/HI/euY3t2nU4ngsEgKisrEVQOBfv9fhkMWltbZZgW02MPy7W2tqKtrS0utOj1ephMJuj1enR2dsa9pjgcF9trIHrF6+vr5XSxgqXlQWy41L9LUBnDK8JhIoWFhUDMBtdms6GpqUn+7m1tbdi7dy96enpQWFgoN3Rqs23skWR6bG9YukRY7u7unhFchUSfKVbs+5tMpqQ9ebESfQ7KDXq9HqdOnYr7U0+fr6Ay/Eis3ysrK1OqT3NJtEyJymKpp4ujLn6/H729vTApR15iiXZSV1eH1tZW1NXVzXgdqLYfiYyPjwOqZSgqKgIW2N6JEmE4Xqb8fr88EUEcflIfwm5tbcXQ0BDq6uriDlG5XC55OE4EWBFQPcoJfiLo1tXVoaOjA2Fl3OSpU6fQ19cHi8Uix3yJQ8ZNTU04f/68nN7d3Q2LxSIPd1ssFjluU/QaitcUh4pFiIjtBWhpacH58+fhcrkystKnzHE4HNArvUhtyrVYw8oJRqJ+JLNr1y5ACYfiKEhpaamcLnphXS4X2tvbUVZWJqelQwzfQEyIF6FeTWx8RRuA0kOMmOeI9uL3++UyiuAuPpNer5/xmfR6vXyN/3979x/bxn3fj//JNK5MdaRoSUG9krNpwQSkfTKR3gZJX7iGKETAMg2DZCefb/0FvNBGB2zYGkgGgqHrH6GEYEH7R2BpDoZ4KWox9dB0mUUJRaR2lWEKqjeTWRGK9iKlzGyqII38kOgTmYlhnVjfP3rvA/mWKJEUSUn08wEQNl93Oh3te989+b733YlQHVFPt8ufTQ7PyBhOIr785huqafcS/38bbaP5EttDX18frl+/ru3riyG29Yh64TdyDJmCOowI0vqKDha73Z41z/nz5xFRzwYho51B3Ye43W6tR7iurk6bLj6bWIZOp1t31lIQyxa9zlD3HdikvRMVi+F4lxpXr5AXvQUul2vd6SbxPqI+mCHzYCr+FKebMk+HiQO32NmIeQYGBrRhDmKZiqJgcXERyAgIJpMJ77777qanisUyxc5TrJuinioW6z48PKzd83NxcTHnjpp2hslk0r78DA4O4sCBAzhw4ABGR0dhtVpzjgOG2gNrVcfUdnV14dixY9qV7KaMMw6iB1rufc2XyWTShhOJ8Z2i93cjbrcbUC9SEj1ymXWo7UX0iInTysj4TMPDw1mfyadeEJg5/dixY1qYzjydDbV9HDlyBIqi4MKFCzCp45bFMjN/hnY/8SVIvs+x6DVVFEXbRre6NZnYBw4MDOD8+fNZZ29OnjyZc1hFPsRwOrGNnT17Nuc+t6+vDw6HAz51uNyBAwcQUc9MykOAxP4+c5t1u91QFAVdXV3adj04OIiVlRXtyyXUYYLHjh3DsHrBYeaQJKj/DkNDQ7BarVpPtVieuBB8s/ZOVAyG413K5XJptwS6e/duXhe7ZfZGib9nfnuHuoMV37Yzv8lDPfCLU4JerxfXr1/P2nFmLl+MG8tF/N5MmT/vdDpx9+5dDA8Pa2PUxE6QdhdxIZDL5dJOj7rdbrz77rva9mG323H27FmtRwnqNnD9+vWsg53b7dZOOV++fBkutWca6l0qzp49q31p6+3tzQqmuTidTly4cAFW9UxI5nYrxn9mLmNgYACXL1/WTu+ePXsW19U7ZAiZB/nM4R65PpNoU1b1ll7iczmdToyOjmrB32Qywev1wul0wuFwQFHv1PHuu+9qy3Q6nbh+/XrRXxaocqxWq7aNyS+xzYnt3OFwwOVy4cKFC1nbeV9fX9b84jqTzDMZXq9Xe9/b24vh4WHtZ8Q6iI6IzQyrd01xOBxwu93al1uxjMw2ALVNii984mfEWUDhrHpG0yoNqRDtTLRFsV2L7VxMd6pjl8+ePZu1T+nv79f+3dbWfntTrQsXLmjLNKlfRuXjFFEp8FZuBajkrdwGBwezerIyiSuhxQ4D6uneYDCIYfW2OmI5ZzNuf5U5bhjq7X6gXsg3MDCAAfW2Poqi4Jx6/8rr169ry3I6nbisXnHc1dWlHdR96sVJDvVqfKvVinPnzmF0dFRbpvgdVvUCpYGBAczNzcHtdsPpdGq/Q8xfTryVW/63ctvNRtXbT2Vu46UQiUQwMTGRtb3uVryVW/nkcyu3vULs++Uvgdvl8/kwMjKC8fHxiuy7C8VbuVGx2HNcJS5fvgyTyYSBgQHodDoMDg5qvVqC+MaeOTZM1B0OhzbE4cCBAxgfH9d6IkTPgTi91tXVBWSchnY4HDCpVy2LU8VutxtW9fSyTqfDgHq3gMwxYiJUHzlyBIPqRVo8PUY7TQxnQsbFeUSUTey/xe3e2FaomrDnuACV6DkOBoMIBoNwZNxqRyaGWIjTWYLo8VLUG6dnnrKGOqxBXN0rLqrLNDo6qo0v7uzsXNfDIKabTCbt1JwQUe9Pmfl7I+pFH+Jn5PURPwP11KE8vVzYc1wdPcdi+5JP526XuOAn11X1uwl7jsunmnqOxTbtzLgN2nZFIhFtrLEYGrHbsOeYisVwXIBKhONyGVVv3C4uYNjNp4rLjeG4OsIxMRyXUzWF40cVwzEVi8MqHhFDQ0NaMJYvqCAiIiKi32I4fkSIR3iKR4ASERER0XoMx48Ik3rLHyIiIiLKjeGYiIiIiEjFcExEREREpGI4JiIiIiJSMRwTEREREakYjomIiIiIVAzHREREREQqhmMiIiIiIhXDMRERERGRiuGYiIiIiEilO3To0JpcpI298sorePbZZ+Uy7THHjx9HNBqVy48Ui8WCGzduyOU9y+Px4PDhw3J5z3M6nXIpy1tvvYUXXnhBLlMJ3LhxAxaLRS7vSePj4zCZTHJ5T1MUBX19fXI5SzQaxfHjx+Uy0ZYYjgvAcFwdGI6rLxz7fL4tg+Rek89nYjgun2oKx/lsS3tNPp+J4ZiKxWEVREREREQqhmMi2pLP58PQ0BAGBgYwNDSESCSCkZERKIqCSCQiz45gMAifzyeXiapSJBLB0NAQzp07h6GhIQSDQYyMjGjTNuLxeOTSjlEURS4RPdIYjmkd7ihJ5nQ64Xa7sbKyArfbDavVis7OToyOjmphORgMAmowVhQFi4uLUBQFo6OjGB8flxdJVDWsVivcbjcAwO12w+FwoLOzE8FgEOfPn1/XPqB+4YQ6HrjS7SMSiWB4eBjnzp2Dz+dDJBKBoijaumXOJ9aTxwV6lDAcl9jJkycxNDSE8+fPy5OKNjMzU5Ed08DAABRFwcTEhDxpnUrvzGn3mZiYwJEjR2C327X3mX8CwMjICBwOR9ZBluhRMDExAavVisOHD8NkMmk9yZntY3R0FCsrK7BarRgaGsr46fKyWq3o6+uD0+mE0+nExMQEfD4ffD4fRkdHtZ5wYWhoCOPj47uqt5uonBiOS8zhcMDtdsNutyMYDGJoaAgjIyPazmZoaAiKomg7yvHxce29OB0HdWc0MDCASCSCy5cvazuqzPkikYh2mjszPItTe5k/c/78ee00uJgmdnRimYuLi9oy5GV7PJ516+/xeBCJRHDu3DmcO3dO6x0Rn7lSotEobv7nTe31qF9sV0l1dXU4cOCAXM7icDjQ19eHmZkZeRJRVTOZTDhw4EDOO0XMzMzA5XLB4XDg/v378uSKcjgccDgccllz9uzZnENEiKoNw3GJBYNBjI6OYmJiQtvh9ff3Y3BwEG63Gy6XCx6PB4qiQFEU+Hw+LRB3dnZiZGQEo6Oj6O3txfDwMBRFgdPpRH9/PyYmJmC32+F2u7Vv9wcOHIDL5cpaB0VR4Ha7YTKZMDc3h/HxcfT29mqnz6Ce+nv33Xezlil+NhKJwOPxoK+vD4cPH4bH40EwGITb7cbhw4cRiUTgdDq1z+J0OtHb24uRkRFMTEygs7Nz3TqV219+86/w//7f/w+Dgy/BaDTKk6lMTCYTgsEgTCYTfD4fxsfHs07NivrIyEjFtwmi3SASiWjDFsbHx7POoLhcLoyMjGB8fBzHjh3L+rlKE21V9GJnrqfo+bZarVk/Q1StGI5L7PDhw3A6nfB6vQCg9apl9hwoioLOzk4MDw/j2LFjiEQiWq+By+XCysqKNn/mzuj+/ftZy3E6nejs7MTg4OC6QCLcv39fu/9rf39/1rQDBw7g/v37Wq9z5jQRoq1WK3p7e9etf+bf6+rqYDKZ0N/fj/7+fgDA+fPns+YrJ4vFgh+/9SN0/D8d+Ne3fsRwXEbiSxTUbdXhcGjbx+XLl2G1WnHhwgWtLrYHl8vFAytVPbl9iJrJZMKFCxdgtVpx+fJlre50OmG322G1Wiv+5THzd4p1HBwchNPpxOXLl3H9+nVYrVatc6a/v7/i60i0UxiOS+zIkSNZIUCEyrNnz2rDDVwuF5xOJzweD3p7e9HX14eVlRXMzMzA5/PB5XLh/PnzOH/+PILBIKxWK4aHh9HX14chdTyz0+lEMBjEzMwMDhw4kPU7xdCGu3fvwul0wuFwYGZmBqOjo1nrZDKZ0NfXB4/HkzVGWgTdXD8D9UvA8PCw1qM9MTGR1Wu+traWFajL7f/8n99nMK6AzO1M/F3ca9RqtcLhcMBqtcJkMmn//2IbJKp2G7UP0R4y20fmdLYPot2HDwEpQCkfAuLz+TAzM5PV01Aq586d03onaD0+BIQPAdkL8vlMfAhI+fAhILtbPp+JDwGhYjEcF6CU4Vj0CJejdzUSiWT1YFA2huPqC8fV+Hhck8m0ZY8iw3H5VFs4rkYMx1QuDMcFKGU4pp3DcFx94fhRxXBcPtUUjh9VDMdULI45JiIiIiJSMRwTEREREakYjomIiIiIVAzHREREREQqXpBXAF6QVx14QV71XZBXjXersFqtW951hhfklU81XZBXje1Dp9Ohs7NTLmfhBXlULIbjAhQSjh8+fIhPP/0UDx48kCdREWpra6HX6+VyURiOqy8c53PP070mn8/EcFw+1RSO89mW9pp8PhPDMRWL4bgA+Ybj+/fvY3l5GQ8fPpQn0Tbs27cPFosF+/btkycVhOGY4XgvyOczMRyXD8Px7pbPZ2I4pmJxzHGJ3b9/H5988gmDcRk8ePAA0WiUvfE7IBKJYGhoCENDQxgfH5cnZ1EUZU8+dEBRFLmUUyHz0qNBtI+RkRF50jrV3j6I9jqG4xJ68OABPvnkE7lMJfTgwQMsLy/LZSoz8dRFt9uNvr4+QH3KYyQSATICcSQSgaIoGB8f196LeXdLIBgaGtL+LtYxEokUtH4ej0cu0SMuEonA7Xajv78f2GCbz2wvMzMzOdvPTstsH8jY1gvZ5nfLZyEqFsNxCa2ursolKoNPP/2UPfM7wOfzYXR0FMFgECMjI4hEIvB4PFAUBYODg1AURXu/uLgIqAdaEZYB5NWrVi6jo6PweDxaGD5//jxmZmYA9bM5HA6cPHkSAwMD8Hg8OHfunNZjPjAwgKGhIQwODgIA6urqtH8H8RnPnz+Pc+fOQVEU7WcikQiGh4cxMDDAnrcqF4lEMDo6qrUTn8+HYDAIj8eD4eFhbXowGNSC8fnz5wF12zSZTOuCaSWNj49jaGhIC/Tnz5/X1icSieDw4cMYGRnByMgIzp07p23TYj5RB4C5uTnt84j5MtvByMhI1r/V8PBwQV9OicqN4biEUqmUXKIyePjwIX7zm9/IZSqzuro6WK1WmEwm+Hw+zM3NQVEUBINBrKysoK+vD263GyaTCQ6HA06nE1arFYqiQFEUzMzM7GhAXFlZgcvlgtVqhcfjwYULF+BwOLRpVqsVDocDfX19OHz4sHanCFEXP6soCnQ6nXb1fzAYhKIoWZ/18OHDWb/3wIEDCAaDWo2qk7jDyMzMDFZWVrCysgJFURCJRNDX14fBwUE4HA5tOxPbn06nw8TEhLy4ilpcXITb7YbT6YTP50Nvb6/WC+5Tx/cqioL+/n5YrVb09fUhGAzCbrfD5XLBbrdn3T0isx0oirKuHSwuLmpfog8cOKB9USXaDRiOaU9iz3HlHTt2TAu8dXV16O3thcPh0AKz6EmVA7DP58OxY8e2vO1SuUUiEYyPjyMSiaCzsxMjIyPwer3ybFuamZlBZ2cnfD6fdvAPBoM4fPgwTCYTFLXnXKfTYXFxUQvMVN2sVqvWPjo7O2G329Hb24vOzk4cOXJE60WWvyRFIhEEg0H09vZm1Sutrq5OGw7lcDgwNzenDaVYWVnJ+1Zwopc5sx2ILwmiHdy/f1+bf3FxMevLJNFuwLtVFGCru1V8+OGHSCQScpnKwGKxoLa2Vi7nhXerKPxuFeLAJnpTFXWMpMlkgtPpREQdsyvCciQSgcPhQDAYhMPhwOjoqBaiRW9ZKYmera1EIhGYTCYtxGbWHQ4HFEXJmrbR34PBoPa7MpcnL1v8e2X+nnwDBvL8TLxbRfkUercK+f9rfHwciqLg7Nmz2nvRXkS7EH+KYUfiLEWpyeuWi7wNZ9bl9rFR2xDziraeqx3kUur2wbtVULEYjguwnXCcSCSypul0OpjN5qx5hEQiAaPRKJf3JBFCjUZjST8Tw/H2FBqOd7t8DpR7TT6fieG4fAoNx7tZPtvSXpPPZ2I4pmJxWEUF3bt3D16vF8lkErFYDIlEAhcvXtSmi/AsTmVVQ4B79dVXce/ePSSTyXVfEMTn83q9WZ81Go3m/JJBREREVE7sOS7AdnqOhbGxMZw6dQoXL17U/nz++ecRi8WwtrYGi8WCsbExGI1GmM1mBAIBfOc735EXs2f87d/+LZ566il0d3fj1VdfRVtbGxKJBGKxGFpaWgAACwsLaG5uxvT0NFwuF2KxGObn5/H888/Li9Ow53h7qq3n2OPxVN24RVMeQ1DYc1w+1dRzPDMzg7W16jrU59M+2HNMxWI4LkCpw/Hzzz+vheSNwrHL5dLm36tefvlluFwuJBIJeDwetLW1wWKxYH5+Hi6XC1B7jk+ePImLFy+ipaUFsVgMsVhs0y8FDMfbU23h+FHFcFw+1RSOH1UMx1QsDquoMDHuVvyZTCYBAIFAANeuXdOmGY1GeL1e6HS6jJ/ee8xmM8xmM1paWrTgC/Uzer1eTE9Pa/OWckwyERERUTHYc1yAUvQcU2mw53h72HNcHdhzXD7sOd772HNMxWLPMRERERGRiuGYiIiIiEjFYRUF4LCK3YPDKran2oZViAcsVJN8rsbnsIryqaZhFT6fTy5VBd7nmMqF4bgADMe7B8Px9lRbOM7ngQB7TT6fieG4fKotHG+1Le01+XwmhmMqFodVEBERERGpGI6JaEvBYBCjo6MYHx+XJxUkEokgEonI5XUyf8/IyEjWNKLdJhKJaO0jn+07l0gkklcby5xndHQUiqJkTSei7WE4JqItTUxMwGq1wmQy4eTJk1o9MwgoirLuvThoi2mKosBkMmnTMg/qYjoAWK1WrdbZ2Zm1PAYB2m3Etmu1WjE8PKy1g8xtWrwXMtuL2K7FOPONtvXM92J8vaIo0Ol0WW1qO+GciH7rS3V1dYNykTb2J3/yJ/j93/99uaz59NNPkU6n5TKVgdFoxL59++RyXn7wgx888mPDjUYjvvnNb8rlnGZmZuB0OuFwOPDZZ58BAH784x/jww8/xNDQEJ5++mkMDQ3hs88+g6IoWk+zz+fD/v378d3vfhdQx+V/9tln+Pu//3usrKxgfHwczc3NGBkZgaIoePPNN9HR0QGPx6O9X1xchKIomJiYwPvvv4/R0VGYTCYtQEMNHZnvq0E+n+m9997Dv//7v8tlKoFvfvObeT+YKBKJIJ1O4+mnn0ZzczMmJiawsLAAn8+Hn/70pzh48CAuXboEAPjZz36GgwcP4rXXXsPi4iL8fj9mZmbw/vvvA+oXUb/fj/fffx8zMzNYXFxERO2ZFu1pZmYGVqsV3/ve97B//368//77+Oyzz/C9730PKysr8Pv96OjoyFq/rbalvSafz5RIJPCDH/xALhNtiT3HRFSQAwcOQFEUjI6OYnFxEXV1ddqBanFxEVarFTMzMxgeHsbw8DCcTieOHDmCs2fPastwOBzo7+/HwMAAJiYmAABnz57F8PCw1ismluF2uzE3NwcA6O3txeDgIBYXF7VlEe0mohd3YmICOp0OOp0OkUgEdXV1mJmZgd1uh8/nQ19fH/r7+9Hf3w8A6O/vzwp7/f39cLvdiEQi69oTAMzNzaG3txf9/f1ab7HL5UJ/f39WjzMRFY7hmIjyJnqwnE4nOjs74Xa70dfXB5PJhMOHD6O/vx9DQ0MwmUyIqOOLg8GgvBjcvXsXkUgEPp8Phw8fRjAYhKIoWo8x1KEVYhlra7ypDu1+iqJgaGgILpcLDodDC6virMuFCxcwPj4Oq9WqDYPINcbY5/MhkjEUSW5PImxzKAVR6XFYRQFKMaxienoawWAQ8/PzMJvNqKmpkWehPHBYxfYUOqwC6unexcVFuN1u7N+/XxsOodfr4XQ6cfPmTfj9fvzVX/0VnE4nfvrTn2Jubg59fX1AxjjigwcPakMldDodTp8+jY6ODly6dAkmk0k7HXz69GmMj49jbm4Of/3Xf439+/fDarVi//792L9/Pw4ePKitWz6nWPeafD4Th1WUTyHDKqCe6Xj//ffR29uL5uZmOBwOXLp0CYuLi3A6nVAUBZcuXcLTTz8Np9MJn8+Hn/3sZ3j66aezhgnt379fOzMyNzeH/v5+PP3001pbEO3J6XQiEongZz/7Gfr7+2EymbQXMtob8tyW9pp8PhOHVVCxeJ/jApTqPsdjY2M4deoUEokEpqen0d7eDgCYn59HW1ubVjObzZiengYAdHd3a39va2tDMpmE2WzOWu6jhPc53p6dvs/xyMiIdjq5FPK55+lek89n4n2Oy2cn73PM9rG1fD4T73NMxeKwih0Ui8XQ0tICj8cDv9+PlpYWBAIBmM1meDweJBIJmM1mBAIBxGIxxGKxRzoQU/Uo5YGfqNqwfRDtLIbjHSRCryCCsE6nQ1tbGwKBAAKBAAwGAwwGA1paWrTeY4ZkIiIiotLjsIoClGpYRSAQ0IZPzM/Pw2g0oqWlBW1tbYjFYvD7/VpA9vv9iMVicLlc8Hq9gDrEYn5+Ht3d3fKiC5ZIJLCwsCCXc0okElmfsZiQnvmFwGg0wmAwZE0Xw0w2w2EV27PTwypKLZ9TrHtNPp+JwyrKZyeHVZRaPtvSXpPPZ+KwCioWw3EBShWOafsYjreH4Xj3y+czMRyXD8Px7pbPZ2I4pmJxWAURERERkYrhmIiIiIhIxXBMRERERKRiOCYiIiIiUjEcExERERGpGI6JiIiIiFQMx0REREREKoZjIiIiIiIVHwJSgHI+BGR6enrdk+JKLZlM5ly/StzsPpFIIJlMymUgx5P2xCOzN8KHgGxPtT0ExOPxoLOzUy7vaZFIZMuHHPAhIOVTTQ8BGR8fh8PhkMt7WjAYRF9fn1zOwoeAULEYjgtQznBMhWE43p5qC8eRSEQu7Xkmkwkmk0kuZ2E4Lp9qCseKokBRFLm851mtVrmUheGYisVwXACG493j0KFD2L9/v1zOC8Nx9YXjRxXDcflUUzh+VDEcU7E45pj2nH379hUdjImIiIg2w3BMe05DQ4NcIiIiIioJhmPaU4xGI4xGo1wmIiIiKgmGY9oTHnvsMTzxxBM4ePCgPImIiIioZHhBXgG2uiDvX/7lXxAOh+VyWcTjcdTX18vlivjf//1fDA0NyeWy2bdvH/bt2yeXi8YL8nhBXrXgBXnlwwvy9j5ekEfFYjguwFbh+LXXXsPnn38ul8siHA7DZrPJ5Yr46KOP8NJLL8nlPYPhmOG4WjAclw/D8d7HcEzF4rAKIiIiIiIVwzERERERkYrhmIiIiIhIxXBMRERERKRiOCYiIiIiUjEcExERERGpGI4rIBQKYXJyEpOTk1m3EEulUgiHw/D5fIB625liLS8vw+/3w+/3IxqNassKhULyrBq/349UKiWXiYiIiB5ZDMcVEI1G0dPTg56eHlgsFqyursLn8yEajWJ5eRlmsxnLy8u4cuUKQqGQNt3v9wNqwBUBOpcPPvgA9fX1OHr0KBoaGrRQXF9fj9XVVayurmJ5eRmrq6tacD569Cj0en1WDUDW+8yfJSIiIqp2DMcVInqO4/E4fD4fWltbtQAbDofR0NAAi8WC1tZWxGIxtLa2Ynl5GcvLy7h+/Tra29vlRa6TSqUQj8exurqq1Xw+H27duoWZmRn4fD7MzMzggw8+QDgcxtTUFADg+9//PuLxOF5//XWkUikEAgHEYjH4/X7tZ3U6XcZvIiIiIqpODMcVInqO6+vrtUc/5wq8sVgMoVAIsVgMUHt/9Xq9PNs6YohEbW2tPAl/8Ad/gNbWVhw9elQL3oKo6fV6rK399oGJmb3FbW1tO/aoaiIiIqJKYjiuEDEeWAyjCIVCuHXrljwbwuEwotEozGZzXoE4U319Perr67WAmynfZYnhGa2trfIkIiIioqrHcFwBXV1dOHr0KI4ePYra2lp0dXVBr9fD6XTCbrejq6sLAHDmzBk0NDTgzJkzAIA//dM/RUNDA3p6eqQlrmc2mxEOh+H3+xGLxWCz2QAAra2tMJvNqK2tRX19PRoaGqDX67UhHACy5m1tbUUqlcIHH3wAm82m/SwRERHRo4DhuAL0ej0aGhq0YAo1kOr1eu0liOELNpsNDQ0NAKD9uRmLxaIN3bDZbFmB12KxaOsghmjkCscA0N7ejvb2dthsNu1niYiIiB4FukOHDq0/B08beuWVV/Dss8/KZc1rr72Gzz//XC6XRTgc1kJtpX300Ud46aWX5PKecfz48W3dNq8aWCwW3LhxQy5vWzqdRjKZxNLSEj755BPtfSKRkGdFTU2N9mpsbERjYyOMRiMaGxvlWXdEOp1GLBZDMpnEJ598gt/85jdIJBJIp9PyrDAajQCQ9RmMRiMMBoM8a0m99dZbeOGFF+QylcCNGzdgsVjk8rYlk0nEYjEkEgkkEgkkk0mk0+l121Vm+zAYDNp21djYiJqamqx5d0I6ncbS0hKWlpa0dpGrrYv2kfk5KtHWo9Eojh8/LpeJtsRwXACG499iON77ShmOY7GY9lpaWlp3kC+G2WxGU1MTzGZz2Q+gQjqdxt27dxGNRrVQvF0GgyHrs5Q61DAcl0+pwnE6ncbCwgLu3LlTsvbR2NiYtV1VSiwWw507d7S2vl01NTUwm804cuQILBZLyb9MMhxTsRiOC7BVOP63f/s3fPjhh3K5LHYyHC8vL8PtdsvlPYPhePvhOJ1OY25uTjvgl1NjYyPsdjtaWlrkSSUhDvgLCwslCS6baW5uRktLS8kCDcNx+Ww3HN+5cwdzc3PaXYfKRXwBa29vL3m4REZbn5ubK3v7MJvNWhspBYZjKhbHHJfQH//xHz8SoesP//AP5RI9ItLpNAKBAN544w0EAoGyB2MAWFpawrVr1+DxeDA3NydPLlosFoPX64XX663IgR8AFhYWtN9Zip5p2n0WFhbg8XgwOTlZ9mAMdZiG+J3T09Ml267S6TSmp6fx+uuvIxAIVKR9xGIxra3Pz8/Lk4kqhuG4hKxWa8VOAe+U9957D3/+538ul+kREIvF8Oabb1bsQClLJpOYnZ2Fx+PZdgCYnZ2F1+utSHjZSCwWg8fjQSAQkCfRHpVIJOD1eksaUAu1sLCAsbGxbQfLubk5vPHGG1hYWJAnVUQymcS1a9d29N+SHm0MxyX2wgsvYP/+/VX3uGXxUJC/+7u/kyfRI2Bubm7X9HYmk8mie5bS6TTefPPNkvZAb0cgEMCbb765K/5dqXhLS0s7+mUrkwiWxX7xCgQCmJ2d3ZEvwDIR9tk+qNIYjsvgL//yL+FyuaDT6bC8vIzV1dWSv/R6/bpauV6PP/44nE4n3G43rFar/HGpys3NzWF2dlYu77hr167hzp07cnlTXq+3IkNBCrG0tIS33357V4QRKpzoMd5tAS4QCBQckIv5mXJLJpMMyFRxvCCvAFtdkEd7Ay/Iy/+CvEQigR//+Mc5g9vq6uqOPiSmpqYGzz33XF53gSjmwF/Jz2e323HixAm5vClekFc++V6Qt9Uwn0puQxs5efJkXheALiwsYHp6Wi4XpRyf2Ww24+TJk3J5U7wgj4rFnmMiymmz8cU+nw9TU1OYnJxEKBSSJxckHo/j5s2bcnlL4kr6rSQSiYKC8fLyMq5cuQKfz4erV6/Kk8uiUhcFUuksLCzkDMahUAhXr17F2NgYpqam5MkFm5yclEt5yXe7DwaDciknv9+PK1eubNj2r1y5gng8jng8vm7adojbRRJVAsMxEeWU62C0vLyMtbU1PPPMM+jp6YFer8fy8jImJydx9epVLC8vw+/3Y3JyEleuXEEqlUI4HMaVK1dw/fp1QD3ATk5OwufzacsNhULaQRcApqamcOXKFW36RvIZe1zoUAqfz4czZ86gp6cH7e3tSKVSuHr1Kq5cuaJ9TvF3EYIy17nYQH337l25RLvYZsN6wuEwnnnmGZw5c0bruRXbdjgcRjgc1rbvaDSatV2lUin4/X5cvXpVay9Q251oY2KeyclJxOPxjN+cLRaLbfmlK5FIFNxG2tvb0dPTg9bWVm29xLqmUimsrq7C7/fj5s2bRa33RvJp60SlwHBMRDnl6hWLx+NZjzUXjzsXf4qDvzh4RqNRhEIhnDlzBna7HalUCtFoFDabDeFwWFuOuF9rPB7H8vIylpaWcObMGW36RnKtY6ZCD/yZxCPUV1dXcebMGfj9fthsNrS2tsLv98NsNqO1tRWxWEy7xuCZZ56RF5OXjZ4uRrvXZqFTr9drf29tbQUAOJ1ONDQ0IBQKIR6P4+jRo3jmmWcQCoXg9/vR09OjbTvhcBitra2Ix+PaMLCGhga0traitrYWc3NziEaj6OnpQX19vfa7NrJVG9lq+kZEwI1Go/D5fOjp6UFHRweg7h9SqRTMZjM6Ojq09W5oaMDc3Jy2b9hqvWXFrCdRMRiOiSinXGN5LRZLVqidnJyE3+9HKpVad8ATISGVSgEA9u/frx08oQYGQZx+lpexmXxunygeX5uv+vp67Y4zoVAoa4y6WG+9Xo/W1tZ165wZigqV69+bdqfN/r/EdgI1SIbDYfj9fhw9ejRrvsz2kUqlsLa2htXVVa1XVXzhFMuJx+MFb2tbPRxkq+kbET3HYly26C3eiLzexdrs35uolBiOiSinXMFTr9fDZrNpwwk6OjpgNpu1Ry83NDRkHcDF/JOTkxgbG4PZbNZ6jUUIED3PolettrY2q3c6l1zrmOnIkSNyaVMdHR3aae1UKgWLxaKtS1dXF/x+P0KhEGpra7V1TqVSea9zLk1NTXKJdrHNLnRrb2/H66+/jitXrmBtbQ0Wi0UbUtDQ0KC1C6jbfldXF65evQqfzwedTof29naEw2GEQiHo9Xo0NDRobSwajaKhoSGvbc1gMGwZKo1G45bzZNLr9QiFQphUxxyLdff7/dqZFr1eD4vFop1d2WjfUKhC2zFRsXi3igLwbhXVgXeryP9uFeIpcruZy+XKq+drcnJy0zGiO625uRnd3d1yeVO8W0X55HO3inQ6jTfeeGPT4RU77amnnsrrccy79ZaNgsFggMvlksub4t0qqFjsOSainMxmM9ra2uTyrtHW1pZXMIYaEvKdt9IMBgPa29vlMu1yNTU16Onpkcu7RlNTU17BGOqtBDfrCd9phX5xJNoOhmMi2lRbW9uuDMiFrldNTQ1Onjy56wKywWDAqVOndt16UX7MZjOeeuopubzjilmvnp6evIYpVdpTTz21q4M7VR+GYyLaUltbW8EPqCiXmpoanDhxoqBgLBiNxrwfilAJZrOZwbgKtLS07KovXna7HSdPnixoHDHUtnX69GnY7XZ50o4wGAw4ffp03r3fRKXCcExEebHb7XjuuefQ3NwsT6qYpqambR+8RUDu7u7esTAjAv5uClS0PWb1CW7b2Ta3S6zDdr/InjhxAqdPn96xbbOmpgZtbW04ffr0ruzJpurHC/IKwAvyqgMvyMv/grxcxBPnFhYW5EklV1NTg+bmZjQ1NZWlx3dhYQF+v78i91BtbGxEU1MT7HZ7wb16G+EFeeWTzwV5uYj2EYvFKrJdiWsDytU+5ufncz4QqJRqampgt9tL1j54QR4Vi+G4AAzH1YHhePvhWEgkErh37x7u3LmT15O48lVTUwOz2YympiYcOXKkJAfKrSwtLWkhYDsPDZEZDAY0NTWVJdwzHJfPdsJxpjt37mjto1RBuaamRvui1dzcXJH2kUgkcPfuXe2zlEo5v/wyHFOxGI4LwHBcHRiOSxeOZSJYisfRptPpTYNmTU0NvvzlL+OJJ56AwWCA0WiE2Wze8VOp6XRa+yzicyQSiU3DjUG9n2xjYyOMRiMaGxthNpvLGlwYjsunVOE4k2gbYttKp9NIJpObfqnM3K6eeOIJNDY2orGxsazb1VZEu15aWtK+FG/VPuS2/sQTT8BsNpd16AbDMRWL4bgADMfVgeG4fOF4M+l0Gr/5zW+09+U8KJZbZgj48pe/vGNBheG4fMoRjjfD9lF6DMdULF6QR0QVUVNTA4PBoL32sszPsVMHfqoubB9EuwfDMRERERGRiuGYdo1YLIa5uTlMT0/jzTffhMfjgcfjgdfrxeTkJObm5kp6IQgRERGRjOGYdlQ6nUYgENBC8OzsLBYWFrC0tIRkMolkMolYLIY7d+5gdnYWXq8XHo8H8/Pz8qKIiIiIto3hmHbMnTt38MYbbyAQCGx6lbMsmUzi2rVrDMlERERUcgzHVHHpdBqzs7OYnJzc9BZGWxEheXZ2dlvLISIiIhIYjqmi0uk0vF4v5ubm5ElFm5ubg9frZUAmIiKibWM4poryer2bPhSiWEtLS/B6vXKZiIiIqCAMx1QxgUCgLMFYWFpawuzsrFwmIiIiyhvDMVXE0tISAoGAXC453u6NiIiItoPhmCri7bfflktbun37Nm7fvi2Xt1SJEE5ERETVieGYyu7OnTsF3apNWFlZwcrKilzeUiwWY+8xERERFYXhmMpuYWFBLpUde4+JiIioGAzHVFbpdBp37tyRy2UXi8V4azciIiIqGMMxlVU5706xlZ383URERLQ3MRxTWe1kQN3J301ERER7E8MxldVODm1IJBJyiYiIiGhTukOHDq3JRdrYK6+8gmeffVYu0yamp6c3vSDvxo0bOW/XJoJ1TU2NPAkA8OSTT+L48eNyWdPc3Izu7m65jOPHjyMajcrlR4rFYsGNGzfkMu0xb731Fl544QW5TCVw48YNWCwWuUx7SDQa3fQYQZQLe45pRz355JPo6enZ8GWz2WCz2dbVxevJJ5+UF0dERES0LQzHVFZGo1EuZamrq8Pv/d7vbfgyGo0wGo3r6uJVV1cnLy7LVr+biIiISMZwTGW1kwG1sbFRLhERERFtiuGYyuprX/uaXKqYnQzmREREtDcxHFNZGY1GGAwGuVx2BoOBPcdERERUMIZjKruWlha5VHZNTU1yiYiIiGhLDMdUdna7Peft2MrF4XDIJSIiIqItMRxT2dXU1MBut8vlLT355JP4oz/6I7m8JbvdviNDOYiIiGjvYzimiigmsNbV1WH//v1yeVMGgwFtbW1ymYiIiCgvDMdUETU1NfizP/uzsg+vOHXqVNl/BxEREVUvhmOqmMbGRnz961+XyyXz1FNPFdw7TURERJSJ4ZgqqqWlBT09PSXt3a2pqcFTTz21I3fFICIiourCcEwV19TUhG984xsl6eVtbGzE6dOnGYyJiIioJBiOaUcYjUa4XC50d3cXFZJrampw4sQJnD59uqifJyIiItoIwzHtqObmZi0kNzU1bTrcoqamBmazGT09PXjuueeKuj0cERER0WZ0hw4dWpOLtLFXXnkFzz77rFymEltaWkI6nUYymQTU27OV8jHUx48fRzQalcuPFIvFghs3bshl2mPeeustvPDCC3KZSuDGjRuwWCxymfaQaDSK48ePy2WiLbHnmHadxsZGmM1mNDc3o7m5GWazuWTBmIiIiGgzDMdERERERCqGYyIiIiIiFcMxEREREZGK4ZiIiIiISMVwTERERESkYjgmIiIiIlIxHBMRERERqRiOiYiIiIhUDMdERERERCqGYyIiIiIile7QoUNrcpE29tJLL6Grq0suUw7379/H//zP/8jlHffiiy8ikUjI5UeKxWLB1atX8eDBA3kS5fDf//3fSKVScnlH/cd//Af+9V//VS5TCbz99tuoq6uTy5TDr3/9a3z88cdyeUd98skn+Id/+Ae5TLQlhuMCvPjiizhx4oRcphzu3buH27dvy+Udd+nSJYZjiwU//OEP8fnnn8uTKIfZ2dldF45v376NqakpuUwlMDY2BoPBIJcph9u3b+PevXtyeUclEglcunRJLhNticMqiIiIiIhUDMdERERERCqGYyIiIiIiFcMxEREREZGK4ZiIiIiISMVwTERERESkYjgmIiIiIlIxHBMRERERqRiOiYiIiIhUDMdERERERCqGYyIiIiIiFcMxEREREZGK4biMPB6PXILX60Uikciqzc/PIxAIZNW2a35+Ht/+9rfR19eHb3/725ifn5dnqah4PI5//Md/xNWrV3H9+nV5ctGi0ShSqZRcphLzeDyIxWJyGa+++qpc2nC7366LFy/ib/7mb/AXf/EXuHjxojy54nw+H65cuYLJyUlEo1F5ctHC4bBcoj3A7/djenpaLm/YFqanpzdsS9sxPT2dtb+XjzGVFgqF8Prrr+Pq1avw+Xzy5KKxfVClfKmurm5QLtLGOjs7cfjwYbmc0+zsLKAG4mvXrqGpqQmJRAJmsxl37tzBm2++iWQyCaPRiHQ6DZ1Oh1dffRV37tyBw+GQF1eQJ554At3d3QgGg/jud7+Lmpoa/PM//zMCgQBaWlrw9ttvY35+HkajEdPT0/B6vWhqagKArPnEesZiMbS0tMi/ZlPJZBIff/wxACCVSmF1dRW9vb2IRCIwGo2YmZlBNBqF0WjE1NQUPvroIxw5cgShUAhf/epXtT/9fj/8fj+++tWvora2Fj6fD++99x7q6+vxk5/8BMvLy7DZbFl1APj5z3+OaDSKI0eOZK3XL3/5S6TT6azao8ZoNOLUqVN4+PChPGlDs7OzaGlpgcfjQSAQwMLCAhwOB6LRqFafnZ2FxWJBOp1GU1OTVjMajXjiiSfkRRakvb0djY2NMJvNOHv2LPx+P7xeL5LJpPa77t69C6PRCI/Ho63f9PQ03n777az5xHoajUb512zq17/+NT7//HMAwHvvvYdnnnkGNpsNP//5z7Fv3z7cunULjz/+OObn5xEKhaDX6/HRRx+htrYW+/btQygUwuOPP46pqSl8/PHHsFqtiEaj+MUvfoF4PA4A+MlPfqJtvz6fD/F4HBaLBaFQCL/85S8BAA0NDdo6ffzxx/jggw+091Q63/jGN1BTUyOXNxSLxbC0tIT5+XnMz89jenoa7e3tmJubg8PhgMfjweTkJJqampBOp7OOAcXsW2VNTU1Z+/ulpaWsY4nY7ltaWrL270tLS1ntZWxsDNPT00W12Y8//hjJZBIAEIlE0NLSgq9//ev45S9/CaPRiF/84hdIpVJ48OCBts3r9XrEYjE0NDQgFArBYDDg5z//OcLhMCwWCxKJhHZsMBqNGBsbg16vx+OPPw6fz5c1n8/nQywWg9Vq1dYpnU5r7YaoEOw5LrNYLIb29nZ861vfwtjYGObn55FMJjE9PY3nn38eRqMRiUQCsVgMY2Nj+Na3vqWFjVLr7u5GW1sbpqenEQgE0N7ejmg0imQyieeeew5jY2NIJpPo7u6G2WzWQvOpU6e2vfOG2nscCoUQj8dRW1uLaDSKrq4u+P1+9PT0wGKx4Pr161rvQDgcRjgcxurqKpxOpxaSjx49iq6uLsTjcbS2tqK9vR2hUAhmsxk9PT0YGxvDrVu3oNfrYbfb2bNcQrFYDM8//7zW8xUIBDA2Nobu7m64XC7EYjHMz89r059//vkNe5e3y2g04uTJk1pv3fz8PE6ePImXX34ZJ0+ehMFgQCAQyJpPrJvL5ZIXV5RwOAy/34+GhgbE43EcPXoUer0ey8vL6Onpgc/nW7dNj42Nwel0Qq/Xaz/f09MDvV4Pi8WCo0ePwmazYWpqSquLdtDe3g69Xi+vBu0iYr/a0tKiBWVx1u473/kOYrEYYrEYkskkvF6v1pZK3ZOcSCTwrW99Szu2JBIJrS22tbWhra1NO4sp2m0sFsO1a9fgcrkK/uK4kWg0ilAoBKidI3q9Hq2trdo2v7y8jFQqBZ/Ph+XlZYRCIUxNTcFms8Fms+HmzZvavDabDbW1tTh69Ki2jI6ODnR0dODmzZuYmppCe3s7LBaLvBpERWE4rhB5ZyO+Ybe1tWXVjUYjDAZDyU+LBQIBXLt2Dffu3dNqZrNZ21G/8847aGlpyeqRAwCXy4VAIICXX345Y2nF0+v12kE/80AvwkEqldJ2fhaLBfF4HJ999hk++OADWCwWLC8vo6GhAXq9HjabTfv55eVlrcetvr4e7e3taGhowPXr1xmOy8BgMGh/j8ViMBgMMBqN2vYszpBA3c5Kzev14p133tHaifgdiUQC77zzDnQ6HcxmMy5evIh33nlHm+fUqVN4+eWX4ff7s5ZXLLPZDKfTCajbcCqV0rbDzG08HA6jtbUVq6urWk9vZg9wa2ur9neo2zAyltnV1YVbt25pYYN2L7PZDIPBoO1DM9uCvL9Hxn64lLxeb9Z+XEgkErh37x7u3buHtrY2BAIBeL1ebfp3vvMdeL3ekrQPnU6H+vp69PT0AOq2nPmnzWZDKpXC0aNHcevWLfT09CCVSiEej2tnTMT8Fotl3RfD+vp61NfXIx6Po6enBx988AEmJyez5iEqFsPxDjEYDPB4PPj2t7+t1YxGIy5evKj11pba2traurHH3d3diEajSCQSSCaT0Ol0MBgMWT2DpQrq9fX1sNls63ZyFosFY2NjmJycREdHB2w2G65evQqbzYbW1lathyGVSqGjowOTk5OYmppCKBRCfX09fD4fOjo64PP5MDU1BYvFgmg0ytPNFdLd3Y1XX30VFy9e1HpyxdkPj8dTkrMOskQioR3oM4nt2e/3a4FdbNuJREI7ZazT6bJ+rhg2m21dT5XFYsGtW7cwOTmphV+9Xq8Nm7Db7YjH4wiHw9Dr9dr2+/rrrwPq2ZVwOIyGhgb4fD6t91mM26ytrc34bbQXtLS0wOv1wuPxZJ1FMZvN2jCljULzdog2J4dul8uFaDSqnTEUxHxiPL8cqothNps3DLV6vR4+nw9+vx82mw12ux03b95EfX09nE4nlpeXtfbS0NCAK1eu4OrVq4jH49rwC5vNptW7uroQDoe13mmiUtAdOnRoTS7Sxl588UWcOHFCLhctkUis61HeqFYqmy07c5o8n/w+X/fu3cPt27fl8oYyd2zLy8va6bSNpm/0fqN6rnkuXbpUssC/V1ksFvzwhz/UxtCWwkbbyUa1Usm1bLm+1ft8zc7O5n0WQmx7q6urCAQCaG1t1XqD5e1Sfp+rLr8HgNu3b2NqaiqrRqUxNjaWdYZkuzba7jaqlcpmyy7H/v727dvrvqzmkrkth8NhxONxtLe3bzh9o+1+IxvNl0gkcOnSpawaUT7Yc7yDNtoBbVQrlc2WnTlNnk9+Xw6ZO7X79++jq6sr5/SN3guZ9VzzUHlstJ1sVCuVXMuW61u9Lwex7YnhHSIYZ07L9V6Q6/J72ls22u42qpXKZsveTft7ORjL0/Pd7vOdjygfDMe064gLm4j2Or00Np6IssnBmGg3YDgmIiIiIlIxHBMRERERqRiOiYiIiIhUDMdERERERCqGY9o11tbWKvKi35L/Xfjaey8qH/nfmq/d+yIqNYZj2hHyzo07OCIiKoZ8LOHxhLaL4Zgqijuu3UM+mPC1+Ws32q3rVQ3k/3++Nn/tNrt1vWhvYDimisi1o5J3sPLr4cOHJX/Jv+NRfcn/LnztvZf8f8pX6V7yvzVfu+Ml/z/JL6JSYDimstpohyXvzDIPRF988UXWS94xluJFv/0/kP+t+dr8JW9Hu+Elty0qnYcb7I/4yv2St81yvXL9XvmYwrZB26E7dOgQt6A8vfjiizhx4oRcphxisRhu376tvRc7K3nnlbljk+cth9HRUSSTSbn8SPna176G1157DV988YU8iXL4z//8T6RSKbm8o+bn5zE9PS2XqQTeeOMNGAwGuUw5vPfee/jwww/lctnodLqsv+t0Ojz22G/7+8T7ZDKJ119/PeOniPLDcFwAhuP8ra2t4d69e1o4lr/RZ/YCZH7zF3+W049+9CN8+umncvmRcvDgQbzyyiv4/PPP5UmUw3/913/hs88+k8s76le/+hVmZmbkMpXAP/3TP+ErX/mKXKYcfvWrX+Hjjz+Wy2UlArH487HHHsOXvvQl7e/JZBLf//73s4I0UT4Yjgvwla98Bb/zO78jlymHBw8erAtfckg2Go0wGAzaN/0vvviCOzIiojLQ6XRl73yopMcffxwP1aFyX3zxBZLJJJLJpHY80el0SCQSgNTTTLQVhmMqO7EzzgzFv/u7v4u6ujo8fPgQqVRKC9JiR0dERKV18ODBig59KDcRgB9//HHs27cP+/fvx2OPPQZFUfDRRx9lhWQxP1E+/n/T8Ps9TmlpuQAAAABJRU5ErkJggg==;" vertex="1" parent="1">
          <mxGeometry x="-50" width="711" height="566" as="geometry" />
        </mxCell>
        <mxCell id="1g7AEfeSAbJGKYjla3uu-8" value="" style="endArrow=classic;html=1;rounded=1;fillColor=#008a00;strokeColor=#005700;strokeWidth=3;entryX=0.281;entryY=0.124;entryDx=0;entryDy=0;entryPerimeter=0;curved=0;exitX=0.183;exitY=0.989;exitDx=0;exitDy=0;exitPerimeter=0;" edge="1" parent="1" target="1g7AEfeSAbJGKYjla3uu-7" source="1g7AEfeSAbJGKYjla3uu-7">
          <mxGeometry width="50" height="50" relative="1" as="geometry">
            <mxPoint x="50" y="550.2" as="sourcePoint" />
            <mxPoint x="80" y="290" as="targetPoint" />
            <Array as="points">
              <mxPoint x="80" y="600" />
              <mxPoint x="-30" y="600" />
              <mxPoint x="-30" y="280" />
              <mxPoint x="80" y="280" />
            </Array>
          </mxGeometry>
        </mxCell>
        <mxCell id="1g7AEfeSAbJGKYjla3uu-10" value="TAP" style="edgeLabel;html=1;align=center;verticalAlign=middle;resizable=0;points=[];" connectable="0" vertex="1" parent="1g7AEfeSAbJGKYjla3uu-8">
          <mxGeometry x="0.1174" y="-2" relative="1" as="geometry">
            <mxPoint x="-1" as="offset" />
          </mxGeometry>
        </mxCell>
        <mxCell id="1g7AEfeSAbJGKYjla3uu-12" value="" style="endArrow=none;html=1;rounded=1;fillColor=#008a00;strokeColor=#005700;strokeWidth=3;curved=0;entryX=0.436;entryY=0.989;entryDx=0;entryDy=0;entryPerimeter=0;" edge="1" parent="1" target="1g7AEfeSAbJGKYjla3uu-7">
          <mxGeometry width="50" height="50" relative="1" as="geometry">
            <mxPoint x="40" y="600" as="sourcePoint" />
            <mxPoint x="230" y="550" as="targetPoint" />
            <Array as="points">
              <mxPoint x="260" y="600" />
            </Array>
          </mxGeometry>
        </mxCell>
        <mxCell id="1g7AEfeSAbJGKYjla3uu-13" value="" style="endArrow=none;html=1;rounded=1;fillColor=#008a00;strokeColor=#005700;strokeWidth=3;curved=0;" edge="1" parent="1">
          <mxGeometry width="50" height="50" relative="1" as="geometry">
            <mxPoint x="210" y="600" as="sourcePoint" />
            <mxPoint x="460" y="560" as="targetPoint" />
            <Array as="points">
              <mxPoint x="460" y="600" />
            </Array>
          </mxGeometry>
        </mxCell>
        <mxCell id="1g7AEfeSAbJGKYjla3uu-14" value="" style="endArrow=classic;html=1;rounded=1;fillColor=#008a00;strokeColor=#005700;strokeWidth=3;exitX=0.422;exitY=0.353;exitDx=0;exitDy=0;exitPerimeter=0;curved=0;" edge="1" parent="1" source="1g7AEfeSAbJGKYjla3uu-7">
          <mxGeometry width="50" height="50" relative="1" as="geometry">
            <mxPoint x="240" y="190" as="sourcePoint" />
            <mxPoint x="360" y="90" as="targetPoint" />
          </mxGeometry>
        </mxCell>
        <mxCell id="Gqn-C4iMrjQAVItMKa9z-3" value="TAP" style="edgeLabel;html=1;align=center;verticalAlign=middle;resizable=0;points=[];" connectable="0" vertex="1" parent="1g7AEfeSAbJGKYjla3uu-14">
          <mxGeometry x="0.1183" y="-4" relative="1" as="geometry">
            <mxPoint as="offset" />
          </mxGeometry>
        </mxCell>
        <mxCell id="1g7AEfeSAbJGKYjla3uu-15" value="" style="endArrow=classic;html=1;rounded=1;fillColor=#008a00;strokeColor=#005700;strokeWidth=3;entryX=0.844;entryY=0.106;entryDx=0;entryDy=0;entryPerimeter=0;curved=0;" edge="1" parent="1" target="1g7AEfeSAbJGKYjla3uu-7">
          <mxGeometry width="50" height="50" relative="1" as="geometry">
            <mxPoint x="160" y="150" as="sourcePoint" />
            <mxPoint x="260" y="20" as="targetPoint" />
            <Array as="points">
              <mxPoint x="310" y="70" />
            </Array>
          </mxGeometry>
        </mxCell>
        <mxCell id="Gqn-C4iMrjQAVItMKa9z-2" value="TAP" style="edgeLabel;html=1;align=center;verticalAlign=middle;resizable=0;points=[];" connectable="0" vertex="1" parent="1g7AEfeSAbJGKYjla3uu-15">
          <mxGeometry x="0.022" y="-4" relative="1" as="geometry">
            <mxPoint as="offset" />
          </mxGeometry>
        </mxCell>
        <mxCell id="Gqn-C4iMrjQAVItMKa9z-1" value="" style="endArrow=classic;html=1;rounded=1;fillColor=#008a00;strokeColor=#005700;strokeWidth=3;exitX=0.422;exitY=0.353;exitDx=0;exitDy=0;exitPerimeter=0;curved=0;entryX=0.436;entryY=0.371;entryDx=0;entryDy=0;entryPerimeter=0;" edge="1" parent="1" target="1g7AEfeSAbJGKYjla3uu-7">
          <mxGeometry width="50" height="50" relative="1" as="geometry">
            <mxPoint x="390" y="210" as="sourcePoint" />
            <mxPoint x="500" y="100" as="targetPoint" />
          </mxGeometry>
        </mxCell>
        <mxCell id="Gqn-C4iMrjQAVItMKa9z-9" value="TAP" style="edgeLabel;html=1;align=center;verticalAlign=middle;resizable=0;points=[];" connectable="0" vertex="1" parent="Gqn-C4iMrjQAVItMKa9z-1">
          <mxGeometry x="0.0461" y="-3" relative="1" as="geometry">
            <mxPoint as="offset" />
          </mxGeometry>
        </mxCell>
        <mxCell id="Gqn-C4iMrjQAVItMKa9z-4" value="" style="endArrow=none;html=1;rounded=0;strokeWidth=3;fillColor=#008a00;strokeColor=#005700;" edge="1" parent="1">
          <mxGeometry width="50" height="50" relative="1" as="geometry">
            <mxPoint x="390" y="210" as="sourcePoint" />
            <mxPoint x="390" y="190" as="targetPoint" />
          </mxGeometry>
        </mxCell>
        <mxCell id="Gqn-C4iMrjQAVItMKa9z-5" value="" style="endArrow=none;html=1;rounded=0;strokeWidth=3;fillColor=#008a00;strokeColor=#005700;" edge="1" parent="1">
          <mxGeometry width="50" height="50" relative="1" as="geometry">
            <mxPoint x="440" y="210" as="sourcePoint" />
            <mxPoint x="440" y="190" as="targetPoint" />
          </mxGeometry>
        </mxCell>
        <mxCell id="Gqn-C4iMrjQAVItMKa9z-6" value="" style="endArrow=none;html=1;rounded=0;strokeWidth=3;fillColor=#008a00;strokeColor=#005700;" edge="1" parent="1">
          <mxGeometry width="50" height="50" relative="1" as="geometry">
            <mxPoint x="580" y="210" as="sourcePoint" />
            <mxPoint x="580" y="190" as="targetPoint" />
          </mxGeometry>
        </mxCell>
        <mxCell id="Gqn-C4iMrjQAVItMKa9z-7" value="" style="endArrow=none;html=1;rounded=0;strokeWidth=3;fillColor=#008a00;strokeColor=#005700;" edge="1" parent="1">
          <mxGeometry width="50" height="50" relative="1" as="geometry">
            <mxPoint x="630" y="210" as="sourcePoint" />
            <mxPoint x="630" y="190" as="targetPoint" />
          </mxGeometry>
        </mxCell>
        <mxCell id="Gqn-C4iMrjQAVItMKa9z-8" value="" style="endArrow=none;html=1;rounded=0;strokeWidth=3;fillColor=#008a00;strokeColor=#005700;" edge="1" parent="1">
          <mxGeometry width="50" height="50" relative="1" as="geometry">
            <mxPoint x="390" y="210" as="sourcePoint" />
            <mxPoint x="630" y="210" as="targetPoint" />
          </mxGeometry>
        </mxCell>
        <mxCell id="Gqn-C4iMrjQAVItMKa9z-10" value="" style="endArrow=classic;html=1;rounded=1;fillColor=#008a00;strokeColor=#005700;strokeWidth=3;exitX=0.422;exitY=0.353;exitDx=0;exitDy=0;exitPerimeter=0;curved=0;entryX=0.352;entryY=0.671;entryDx=0;entryDy=0;entryPerimeter=0;" edge="1" parent="1" target="1g7AEfeSAbJGKYjla3uu-7">
          <mxGeometry width="50" height="50" relative="1" as="geometry">
            <mxPoint x="130" y="500" as="sourcePoint" />
            <mxPoint x="240" y="390" as="targetPoint" />
          </mxGeometry>
        </mxCell>
        <mxCell id="Gqn-C4iMrjQAVItMKa9z-11" value="TAP" style="edgeLabel;html=1;align=center;verticalAlign=middle;resizable=0;points=[];" connectable="0" vertex="1" parent="Gqn-C4iMrjQAVItMKa9z-10">
          <mxGeometry x="0.1183" y="-4" relative="1" as="geometry">
            <mxPoint as="offset" />
          </mxGeometry>
        </mxCell>
        <mxCell id="Gqn-C4iMrjQAVItMKa9z-12" value="" style="endArrow=classic;html=1;rounded=1;fillColor=#008a00;strokeColor=#005700;strokeWidth=3;curved=0;" edge="1" parent="1">
          <mxGeometry width="50" height="50" relative="1" as="geometry">
            <mxPoint x="50" y="450" as="sourcePoint" />
            <mxPoint x="410" y="360" as="targetPoint" />
            <Array as="points">
              <mxPoint x="200" y="350" />
            </Array>
          </mxGeometry>
        </mxCell>
        <mxCell id="Gqn-C4iMrjQAVItMKa9z-14" value="TAP" style="edgeLabel;html=1;align=center;verticalAlign=middle;resizable=0;points=[];" connectable="0" vertex="1" parent="Gqn-C4iMrjQAVItMKa9z-12">
          <mxGeometry x="-0.2344" y="-1" relative="1" as="geometry">
            <mxPoint as="offset" />
          </mxGeometry>
        </mxCell>
        <mxCell id="Gqn-C4iMrjQAVItMKa9z-15" value="" style="endArrow=classic;html=1;rounded=1;fillColor=#008a00;strokeColor=#005700;strokeWidth=3;exitX=0.422;exitY=0.353;exitDx=0;exitDy=0;exitPerimeter=0;curved=0;" edge="1" parent="1">
          <mxGeometry width="50" height="50" relative="1" as="geometry">
            <mxPoint x="240" y="500" as="sourcePoint" />
            <mxPoint x="140" y="510" as="targetPoint" />
            <Array as="points">
              <mxPoint x="190" y="520" />
            </Array>
          </mxGeometry>
        </mxCell>
        <mxCell id="Gqn-C4iMrjQAVItMKa9z-16" value="TAP" style="edgeLabel;html=1;align=center;verticalAlign=middle;resizable=0;points=[];" connectable="0" vertex="1" parent="Gqn-C4iMrjQAVItMKa9z-15">
          <mxGeometry x="0.0461" y="-3" relative="1" as="geometry">
            <mxPoint as="offset" />
          </mxGeometry>
        </mxCell>
        <mxCell id="Gqn-C4iMrjQAVItMKa9z-17" value="" style="endArrow=none;html=1;rounded=0;strokeWidth=3;fillColor=#008a00;strokeColor=#005700;" edge="1" parent="1">
          <mxGeometry width="50" height="50" relative="1" as="geometry">
            <mxPoint x="240" y="500" as="sourcePoint" />
            <mxPoint x="240" y="480" as="targetPoint" />
          </mxGeometry>
        </mxCell>
        <mxCell id="Gqn-C4iMrjQAVItMKa9z-18" value="" style="endArrow=none;html=1;rounded=0;strokeWidth=3;fillColor=#008a00;strokeColor=#005700;" edge="1" parent="1">
          <mxGeometry width="50" height="50" relative="1" as="geometry">
            <mxPoint x="290" y="500" as="sourcePoint" />
            <mxPoint x="290" y="480" as="targetPoint" />
          </mxGeometry>
        </mxCell>
        <mxCell id="Gqn-C4iMrjQAVItMKa9z-19" value="" style="endArrow=none;html=1;rounded=0;strokeWidth=3;fillColor=#008a00;strokeColor=#005700;" edge="1" parent="1">
          <mxGeometry width="50" height="50" relative="1" as="geometry">
            <mxPoint x="440" y="500" as="sourcePoint" />
            <mxPoint x="440" y="480" as="targetPoint" />
          </mxGeometry>
        </mxCell>
        <mxCell id="Gqn-C4iMrjQAVItMKa9z-20" value="" style="endArrow=none;html=1;rounded=0;strokeWidth=3;fillColor=#008a00;strokeColor=#005700;" edge="1" parent="1">
          <mxGeometry width="50" height="50" relative="1" as="geometry">
            <mxPoint x="490" y="500" as="sourcePoint" />
            <mxPoint x="490" y="480" as="targetPoint" />
          </mxGeometry>
        </mxCell>
        <mxCell id="Gqn-C4iMrjQAVItMKa9z-21" value="" style="endArrow=none;html=1;rounded=0;strokeWidth=3;fillColor=#008a00;strokeColor=#005700;" edge="1" parent="1">
          <mxGeometry width="50" height="50" relative="1" as="geometry">
            <mxPoint x="240" y="500" as="sourcePoint" />
            <mxPoint x="490" y="500" as="targetPoint" />
          </mxGeometry>
        </mxCell>
        <mxCell id="Gqn-C4iMrjQAVItMKa9z-23" value="" style="endArrow=classic;html=1;rounded=1;fillColor=#0050ef;strokeColor=#001DBC;strokeWidth=3;entryX=-0.005;entryY=0.266;entryDx=0;entryDy=0;entryPerimeter=0;curved=0;" edge="1" parent="1" target="1g7AEfeSAbJGKYjla3uu-7">
          <mxGeometry width="50" height="50" relative="1" as="geometry">
            <mxPoint x="50" y="570" as="sourcePoint" />
            <mxPoint x="-80" y="140" as="targetPoint" />
            <Array as="points">
              <mxPoint x="50" y="630" />
              <mxPoint x="-100" y="630" />
              <mxPoint x="-100" y="150" />
            </Array>
          </mxGeometry>
        </mxCell>
        <mxCell id="Gqn-C4iMrjQAVItMKa9z-32" value="TAP" style="edgeLabel;html=1;align=center;verticalAlign=middle;resizable=0;points=[];" connectable="0" vertex="1" parent="Gqn-C4iMrjQAVItMKa9z-23">
          <mxGeometry x="0.2077" y="7" relative="1" as="geometry">
            <mxPoint as="offset" />
          </mxGeometry>
        </mxCell>
        <mxCell id="Gqn-C4iMrjQAVItMKa9z-24" value="" style="endArrow=none;html=1;rounded=1;fillColor=#0050ef;strokeColor=#001DBC;strokeWidth=3;curved=0;entryX=0.382;entryY=0.992;entryDx=0;entryDy=0;entryPerimeter=0;" edge="1" parent="1" target="1g7AEfeSAbJGKYjla3uu-7">
          <mxGeometry width="50" height="50" relative="1" as="geometry">
            <mxPoint x="40" y="630" as="sourcePoint" />
            <mxPoint x="260" y="590" as="targetPoint" />
            <Array as="points">
              <mxPoint x="220" y="630" />
            </Array>
          </mxGeometry>
        </mxCell>
        <mxCell id="Gqn-C4iMrjQAVItMKa9z-25" value="" style="endArrow=none;html=1;rounded=1;fillColor=#0050ef;strokeColor=#001DBC;strokeWidth=3;curved=0;entryX=0.671;entryY=0.992;entryDx=0;entryDy=0;entryPerimeter=0;" edge="1" parent="1" target="1g7AEfeSAbJGKYjla3uu-7">
          <mxGeometry width="50" height="50" relative="1" as="geometry">
            <mxPoint x="190" y="629" as="sourcePoint" />
            <mxPoint x="372" y="560" as="targetPoint" />
            <Array as="points">
              <mxPoint x="427" y="630" />
            </Array>
          </mxGeometry>
        </mxCell>
        <mxCell id="Gqn-C4iMrjQAVItMKa9z-26" value="" style="endArrow=classic;html=1;rounded=1;fillColor=#0050ef;strokeColor=#001DBC;strokeWidth=3;exitX=0.309;exitY=0.477;exitDx=0;exitDy=0;exitPerimeter=0;entryX=0.098;entryY=0;entryDx=0;entryDy=0;entryPerimeter=0;curved=0;" edge="1" parent="1" source="1g7AEfeSAbJGKYjla3uu-7" target="1g7AEfeSAbJGKYjla3uu-7">
          <mxGeometry width="50" height="50" relative="1" as="geometry">
            <mxPoint x="730" y="280" as="sourcePoint" />
            <mxPoint x="-110" y="40" as="targetPoint" />
            <Array as="points">
              <mxPoint x="700" y="270" />
              <mxPoint x="690" y="-30" />
              <mxPoint x="20" y="-40" />
            </Array>
          </mxGeometry>
        </mxCell>
        <mxCell id="Gqn-C4iMrjQAVItMKa9z-31" value="TAP" style="edgeLabel;html=1;align=center;verticalAlign=middle;resizable=0;points=[];" connectable="0" vertex="1" parent="Gqn-C4iMrjQAVItMKa9z-26">
          <mxGeometry x="-0.8561" y="-1" relative="1" as="geometry">
            <mxPoint as="offset" />
          </mxGeometry>
        </mxCell>
        <mxCell id="Gqn-C4iMrjQAVItMKa9z-27" value="" style="endArrow=none;html=1;rounded=0;strokeWidth=3;fillColor=#0050ef;strokeColor=#001DBC;" edge="1" parent="1">
          <mxGeometry width="50" height="50" relative="1" as="geometry">
            <mxPoint x="170" y="270" as="sourcePoint" />
            <mxPoint x="170" y="260" as="targetPoint" />
            <Array as="points">
              <mxPoint x="170" y="250" />
            </Array>
          </mxGeometry>
        </mxCell>
        <mxCell id="Gqn-C4iMrjQAVItMKa9z-29" value="" style="endArrow=none;html=1;rounded=0;strokeWidth=3;fillColor=#0050ef;strokeColor=#001DBC;" edge="1" parent="1">
          <mxGeometry width="50" height="50" relative="1" as="geometry">
            <mxPoint x="380" y="270" as="sourcePoint" />
            <mxPoint x="380" y="260" as="targetPoint" />
            <Array as="points">
              <mxPoint x="380" y="250" />
            </Array>
          </mxGeometry>
        </mxCell>
        <mxCell id="Gqn-C4iMrjQAVItMKa9z-30" value="" style="endArrow=none;html=1;rounded=0;strokeWidth=3;fillColor=#0050ef;strokeColor=#001DBC;" edge="1" parent="1">
          <mxGeometry width="50" height="50" relative="1" as="geometry">
            <mxPoint x="560" y="270" as="sourcePoint" />
            <mxPoint x="560" y="260" as="targetPoint" />
            <Array as="points">
              <mxPoint x="560" y="250" />
            </Array>
          </mxGeometry>
        </mxCell>
        <mxCell id="Gqn-C4iMrjQAVItMKa9z-33" value="" style="endArrow=classic;html=1;rounded=1;fillColor=#008a00;strokeColor=#005700;strokeWidth=3;exitX=0.422;exitY=0.353;exitDx=0;exitDy=0;exitPerimeter=0;curved=0;entryX=0.267;entryY=0.548;entryDx=0;entryDy=0;entryPerimeter=0;" edge="1" parent="1" target="1g7AEfeSAbJGKYjla3uu-7">
          <mxGeometry width="50" height="50" relative="1" as="geometry">
            <mxPoint x="240" y="260" as="sourcePoint" />
            <mxPoint x="350" y="150" as="targetPoint" />
            <Array as="points">
              <mxPoint x="230" y="290" />
            </Array>
          </mxGeometry>
        </mxCell>
        <mxCell id="Gqn-C4iMrjQAVItMKa9z-34" value="TAP" style="edgeLabel;html=1;align=center;verticalAlign=middle;resizable=0;points=[];" connectable="0" vertex="1" parent="Gqn-C4iMrjQAVItMKa9z-33">
          <mxGeometry x="0.1183" y="-4" relative="1" as="geometry">
            <mxPoint as="offset" />
          </mxGeometry>
        </mxCell>
        <mxCell id="Gqn-C4iMrjQAVItMKa9z-37" value="" style="endArrow=none;html=1;rounded=1;strokeWidth=3;fillColor=#008a00;strokeColor=#005700;curved=0;" edge="1" parent="1">
          <mxGeometry width="50" height="50" relative="1" as="geometry">
            <mxPoint x="230" y="290" as="sourcePoint" />
            <mxPoint x="450" y="250" as="targetPoint" />
            <Array as="points">
              <mxPoint x="450" y="290" />
            </Array>
          </mxGeometry>
        </mxCell>
        <mxCell id="Gqn-C4iMrjQAVItMKa9z-38" value="" style="endArrow=none;html=1;rounded=1;strokeWidth=3;fillColor=#008a00;strokeColor=#005700;curved=0;" edge="1" parent="1">
          <mxGeometry width="50" height="50" relative="1" as="geometry">
            <mxPoint x="420" y="290" as="sourcePoint" />
            <mxPoint x="640" y="250" as="targetPoint" />
            <Array as="points">
              <mxPoint x="640" y="290" />
            </Array>
          </mxGeometry>
        </mxCell>
        <mxCell id="Gqn-C4iMrjQAVItMKa9z-39" value="" style="endArrow=none;html=1;rounded=0;strokeWidth=3;fillColor=#008a00;strokeColor=#005700;" edge="1" parent="1">
          <mxGeometry width="50" height="50" relative="1" as="geometry">
            <mxPoint x="10" y="280" as="sourcePoint" />
            <mxPoint x="10" y="250" as="targetPoint" />
          </mxGeometry>
        </mxCell>
        <mxCell id="Gqn-C4iMrjQAVItMKa9z-40" value="" style="endArrow=classic;html=1;rounded=0;strokeWidth=3;fillColor=#0050ef;strokeColor=#001DBC;entryX=0.211;entryY=0.548;entryDx=0;entryDy=0;entryPerimeter=0;" edge="1" parent="1" target="1g7AEfeSAbJGKYjla3uu-7">
          <mxGeometry width="50" height="50" relative="1" as="geometry">
            <mxPoint x="40" y="250" as="sourcePoint" />
            <mxPoint x="90" y="200" as="targetPoint" />
          </mxGeometry>
        </mxCell>
      </root>
    </mxGraphModel>
  </diagram>
</mxfile>
